<?xml version="1.0" encoding="utf-8" standalone="no"?>
<!DOCTYPE svg PUBLIC "-//W3C//DTD SVG 1.1//EN"
  "http://www.w3.org/Graphics/SVG/1.1/DTD/svg11.dtd">
<!-- Created with matplotlib (http://matplotlib.org/) -->
<svg height="345pt" version="1.1" viewBox="0 0 460 345" width="460pt" xmlns="http://www.w3.org/2000/svg" xmlns:xlink="http://www.w3.org/1999/xlink">
 <defs>
  <style type="text/css">
*{stroke-linecap:butt;stroke-linejoin:round;}
  </style>
 </defs>
 <g id="figure_1">
  <g id="patch_1">
   <path d="M 0 345.6 
L 460.8 345.6 
L 460.8 0 
L 0 0 
z
" style="fill:#ffffff;"/>
  </g>
  <g id="axes_1">
   <g id="patch_2">
    <path d="M 57.6 307.584 
L 414.72 307.584 
L 414.72 41.472 
L 57.6 41.472 
z
" style="fill:#ffffff;"/>
   </g>
   <g id="matplotlib.axis_1">
    <g id="xtick_1">
     <g id="line2d_1">
      <defs>
       <path d="M 0 0 
L 0 3.5 
" id="m74873aa830" style="stroke:#000000;stroke-width:0.8;"/>
      </defs>
      <g>
       <use style="stroke:#000000;stroke-width:0.8;" x="71.239481" xlink:href="#m74873aa830" y="307.584"/>
      </g>
     </g>
     <g id="text_1">
      <!-- 0 -->
      <defs>
       <path d="M 31.78125 66.40625 
Q 24.171875 66.40625 20.328125 58.90625 
Q 16.5 51.421875 16.5 36.375 
Q 16.5 21.390625 20.328125 13.890625 
Q 24.171875 6.390625 31.78125 6.390625 
Q 39.453125 6.390625 43.28125 13.890625 
Q 47.125 21.390625 47.125 36.375 
Q 47.125 51.421875 43.28125 58.90625 
Q 39.453125 66.40625 31.78125 66.40625 
z
M 31.78125 74.21875 
Q 44.046875 74.21875 50.515625 64.515625 
Q 56.984375 54.828125 56.984375 36.375 
Q 56.984375 17.96875 50.515625 8.265625 
Q 44.046875 -1.421875 31.78125 -1.421875 
Q 19.53125 -1.421875 13.0625 8.265625 
Q 6.59375 17.96875 6.59375 36.375 
Q 6.59375 54.828125 13.0625 64.515625 
Q 19.53125 74.21875 31.78125 74.21875 
z
" id="DejaVuSans-30"/>
      </defs>
      <g transform="translate(68.058231 322.182437)scale(0.1 -0.1)">
       <use xlink:href="#DejaVuSans-30"/>
      </g>
     </g>
    </g>
    <g id="xtick_2">
     <g id="line2d_2">
      <g>
       <use style="stroke:#000000;stroke-width:0.8;" x="137.732987" xlink:href="#m74873aa830" y="307.584"/>
      </g>
     </g>
     <g id="text_2">
      <!-- 2000 -->
      <defs>
       <path d="M 19.1875 8.296875 
L 53.609375 8.296875 
L 53.609375 0 
L 7.328125 0 
L 7.328125 8.296875 
Q 12.9375 14.109375 22.625 23.890625 
Q 32.328125 33.6875 34.8125 36.53125 
Q 39.546875 41.84375 41.421875 45.53125 
Q 43.3125 49.21875 43.3125 52.78125 
Q 43.3125 58.59375 39.234375 62.25 
Q 35.15625 65.921875 28.609375 65.921875 
Q 23.96875 65.921875 18.8125 64.3125 
Q 13.671875 62.703125 7.8125 59.421875 
L 7.8125 69.390625 
Q 13.765625 71.78125 18.9375 73 
Q 24.125 74.21875 28.421875 74.21875 
Q 39.75 74.21875 46.484375 68.546875 
Q 53.21875 62.890625 53.21875 53.421875 
Q 53.21875 48.921875 51.53125 44.890625 
Q 49.859375 40.875 45.40625 35.40625 
Q 44.1875 33.984375 37.640625 27.21875 
Q 31.109375 20.453125 19.1875 8.296875 
z
" id="DejaVuSans-32"/>
      </defs>
      <g transform="translate(125.007987 322.182437)scale(0.1 -0.1)">
       <use xlink:href="#DejaVuSans-32"/>
       <use x="63.623047" xlink:href="#DejaVuSans-30"/>
       <use x="127.246094" xlink:href="#DejaVuSans-30"/>
       <use x="190.869141" xlink:href="#DejaVuSans-30"/>
      </g>
     </g>
    </g>
    <g id="xtick_3">
     <g id="line2d_3">
      <g>
       <use style="stroke:#000000;stroke-width:0.8;" x="204.226494" xlink:href="#m74873aa830" y="307.584"/>
      </g>
     </g>
     <g id="text_3">
      <!-- 4000 -->
      <defs>
       <path d="M 37.796875 64.3125 
L 12.890625 25.390625 
L 37.796875 25.390625 
z
M 35.203125 72.90625 
L 47.609375 72.90625 
L 47.609375 25.390625 
L 58.015625 25.390625 
L 58.015625 17.1875 
L 47.609375 17.1875 
L 47.609375 0 
L 37.796875 0 
L 37.796875 17.1875 
L 4.890625 17.1875 
L 4.890625 26.703125 
z
" id="DejaVuSans-34"/>
      </defs>
      <g transform="translate(191.501494 322.182437)scale(0.1 -0.1)">
       <use xlink:href="#DejaVuSans-34"/>
       <use x="63.623047" xlink:href="#DejaVuSans-30"/>
       <use x="127.246094" xlink:href="#DejaVuSans-30"/>
       <use x="190.869141" xlink:href="#DejaVuSans-30"/>
      </g>
     </g>
    </g>
    <g id="xtick_4">
     <g id="line2d_4">
      <g>
       <use style="stroke:#000000;stroke-width:0.8;" x="270.72" xlink:href="#m74873aa830" y="307.584"/>
      </g>
     </g>
     <g id="text_4">
      <!-- 6000 -->
      <defs>
       <path d="M 33.015625 40.375 
Q 26.375 40.375 22.484375 35.828125 
Q 18.609375 31.296875 18.609375 23.390625 
Q 18.609375 15.53125 22.484375 10.953125 
Q 26.375 6.390625 33.015625 6.390625 
Q 39.65625 6.390625 43.53125 10.953125 
Q 47.40625 15.53125 47.40625 23.390625 
Q 47.40625 31.296875 43.53125 35.828125 
Q 39.65625 40.375 33.015625 40.375 
z
M 52.59375 71.296875 
L 52.59375 62.3125 
Q 48.875 64.0625 45.09375 64.984375 
Q 41.3125 65.921875 37.59375 65.921875 
Q 27.828125 65.921875 22.671875 59.328125 
Q 17.53125 52.734375 16.796875 39.40625 
Q 19.671875 43.65625 24.015625 45.921875 
Q 28.375 48.1875 33.59375 48.1875 
Q 44.578125 48.1875 50.953125 41.515625 
Q 57.328125 34.859375 57.328125 23.390625 
Q 57.328125 12.15625 50.6875 5.359375 
Q 44.046875 -1.421875 33.015625 -1.421875 
Q 20.359375 -1.421875 13.671875 8.265625 
Q 6.984375 17.96875 6.984375 36.375 
Q 6.984375 53.65625 15.1875 63.9375 
Q 23.390625 74.21875 37.203125 74.21875 
Q 40.921875 74.21875 44.703125 73.484375 
Q 48.484375 72.75 52.59375 71.296875 
z
" id="DejaVuSans-36"/>
      </defs>
      <g transform="translate(257.995 322.182437)scale(0.1 -0.1)">
       <use xlink:href="#DejaVuSans-36"/>
       <use x="63.623047" xlink:href="#DejaVuSans-30"/>
       <use x="127.246094" xlink:href="#DejaVuSans-30"/>
       <use x="190.869141" xlink:href="#DejaVuSans-30"/>
      </g>
     </g>
    </g>
    <g id="xtick_5">
     <g id="line2d_5">
      <g>
       <use style="stroke:#000000;stroke-width:0.8;" x="337.213506" xlink:href="#m74873aa830" y="307.584"/>
      </g>
     </g>
     <g id="text_5">
      <!-- 8000 -->
      <defs>
       <path d="M 31.78125 34.625 
Q 24.75 34.625 20.71875 30.859375 
Q 16.703125 27.09375 16.703125 20.515625 
Q 16.703125 13.921875 20.71875 10.15625 
Q 24.75 6.390625 31.78125 6.390625 
Q 38.8125 6.390625 42.859375 10.171875 
Q 46.921875 13.96875 46.921875 20.515625 
Q 46.921875 27.09375 42.890625 30.859375 
Q 38.875 34.625 31.78125 34.625 
z
M 21.921875 38.8125 
Q 15.578125 40.375 12.03125 44.71875 
Q 8.5 49.078125 8.5 55.328125 
Q 8.5 64.0625 14.71875 69.140625 
Q 20.953125 74.21875 31.78125 74.21875 
Q 42.671875 74.21875 48.875 69.140625 
Q 55.078125 64.0625 55.078125 55.328125 
Q 55.078125 49.078125 51.53125 44.71875 
Q 48 40.375 41.703125 38.8125 
Q 48.828125 37.15625 52.796875 32.3125 
Q 56.78125 27.484375 56.78125 20.515625 
Q 56.78125 9.90625 50.3125 4.234375 
Q 43.84375 -1.421875 31.78125 -1.421875 
Q 19.734375 -1.421875 13.25 4.234375 
Q 6.78125 9.90625 6.78125 20.515625 
Q 6.78125 27.484375 10.78125 32.3125 
Q 14.796875 37.15625 21.921875 38.8125 
z
M 18.3125 54.390625 
Q 18.3125 48.734375 21.84375 45.5625 
Q 25.390625 42.390625 31.78125 42.390625 
Q 38.140625 42.390625 41.71875 45.5625 
Q 45.3125 48.734375 45.3125 54.390625 
Q 45.3125 60.0625 41.71875 63.234375 
Q 38.140625 66.40625 31.78125 66.40625 
Q 25.390625 66.40625 21.84375 63.234375 
Q 18.3125 60.0625 18.3125 54.390625 
z
" id="DejaVuSans-38"/>
      </defs>
      <g transform="translate(324.488506 322.182437)scale(0.1 -0.1)">
       <use xlink:href="#DejaVuSans-38"/>
       <use x="63.623047" xlink:href="#DejaVuSans-30"/>
       <use x="127.246094" xlink:href="#DejaVuSans-30"/>
       <use x="190.869141" xlink:href="#DejaVuSans-30"/>
      </g>
     </g>
    </g>
    <g id="xtick_6">
     <g id="line2d_6">
      <g>
       <use style="stroke:#000000;stroke-width:0.8;" x="403.707013" xlink:href="#m74873aa830" y="307.584"/>
      </g>
     </g>
     <g id="text_6">
      <!-- 10000 -->
      <defs>
       <path d="M 12.40625 8.296875 
L 28.515625 8.296875 
L 28.515625 63.921875 
L 10.984375 60.40625 
L 10.984375 69.390625 
L 28.421875 72.90625 
L 38.28125 72.90625 
L 38.28125 8.296875 
L 54.390625 8.296875 
L 54.390625 0 
L 12.40625 0 
z
" id="DejaVuSans-31"/>
      </defs>
      <g transform="translate(387.800763 322.182437)scale(0.1 -0.1)">
       <use xlink:href="#DejaVuSans-31"/>
       <use x="63.623047" xlink:href="#DejaVuSans-30"/>
       <use x="127.246094" xlink:href="#DejaVuSans-30"/>
       <use x="190.869141" xlink:href="#DejaVuSans-30"/>
       <use x="254.492188" xlink:href="#DejaVuSans-30"/>
      </g>
     </g>
    </g>
   </g>
   <g id="matplotlib.axis_2">
    <g id="ytick_1">
     <g id="line2d_7">
      <defs>
       <path d="M 0 0 
L -3.5 0 
" id="m57593bee31" style="stroke:#000000;stroke-width:0.8;"/>
      </defs>
      <g>
       <use style="stroke:#000000;stroke-width:0.8;" x="57.6" xlink:href="#m57593bee31" y="295.488"/>
      </g>
     </g>
     <g id="text_7">
      <!-- 1.0 -->
      <defs>
       <path d="M 10.6875 12.40625 
L 21 12.40625 
L 21 0 
L 10.6875 0 
z
" id="DejaVuSans-2e"/>
      </defs>
      <g transform="translate(34.696875 299.287219)scale(0.1 -0.1)">
       <use xlink:href="#DejaVuSans-31"/>
       <use x="63.623047" xlink:href="#DejaVuSans-2e"/>
       <use x="95.410156" xlink:href="#DejaVuSans-30"/>
      </g>
     </g>
    </g>
    <g id="ytick_2">
     <g id="line2d_8">
      <g>
       <use style="stroke:#000000;stroke-width:0.8;" x="57.6" xlink:href="#m57593bee31" y="247.104"/>
      </g>
     </g>
     <g id="text_8">
      <!-- 1.2 -->
      <g transform="translate(34.696875 250.903219)scale(0.1 -0.1)">
       <use xlink:href="#DejaVuSans-31"/>
       <use x="63.623047" xlink:href="#DejaVuSans-2e"/>
       <use x="95.410156" xlink:href="#DejaVuSans-32"/>
      </g>
     </g>
    </g>
    <g id="ytick_3">
     <g id="line2d_9">
      <g>
       <use style="stroke:#000000;stroke-width:0.8;" x="57.6" xlink:href="#m57593bee31" y="198.72"/>
      </g>
     </g>
     <g id="text_9">
      <!-- 1.4 -->
      <g transform="translate(34.696875 202.519219)scale(0.1 -0.1)">
       <use xlink:href="#DejaVuSans-31"/>
       <use x="63.623047" xlink:href="#DejaVuSans-2e"/>
       <use x="95.410156" xlink:href="#DejaVuSans-34"/>
      </g>
     </g>
    </g>
    <g id="ytick_4">
     <g id="line2d_10">
      <g>
       <use style="stroke:#000000;stroke-width:0.8;" x="57.6" xlink:href="#m57593bee31" y="150.336"/>
      </g>
     </g>
     <g id="text_10">
      <!-- 1.6 -->
      <g transform="translate(34.696875 154.135219)scale(0.1 -0.1)">
       <use xlink:href="#DejaVuSans-31"/>
       <use x="63.623047" xlink:href="#DejaVuSans-2e"/>
       <use x="95.410156" xlink:href="#DejaVuSans-36"/>
      </g>
     </g>
    </g>
    <g id="ytick_5">
     <g id="line2d_11">
      <g>
       <use style="stroke:#000000;stroke-width:0.8;" x="57.6" xlink:href="#m57593bee31" y="101.952"/>
      </g>
     </g>
     <g id="text_11">
      <!-- 1.8 -->
      <g transform="translate(34.696875 105.751219)scale(0.1 -0.1)">
       <use xlink:href="#DejaVuSans-31"/>
       <use x="63.623047" xlink:href="#DejaVuSans-2e"/>
       <use x="95.410156" xlink:href="#DejaVuSans-38"/>
      </g>
     </g>
    </g>
    <g id="ytick_6">
     <g id="line2d_12">
      <g>
       <use style="stroke:#000000;stroke-width:0.8;" x="57.6" xlink:href="#m57593bee31" y="53.568"/>
      </g>
     </g>
     <g id="text_12">
      <!-- 2.0 -->
      <g transform="translate(34.696875 57.367219)scale(0.1 -0.1)">
       <use xlink:href="#DejaVuSans-32"/>
       <use x="63.623047" xlink:href="#DejaVuSans-2e"/>
       <use x="95.410156" xlink:href="#DejaVuSans-30"/>
      </g>
     </g>
    </g>
   </g>
   <g id="line2d_13">
    <defs>
     <path d="M 0 3 
C 0.795609 3 1.55874 2.683901 2.12132 2.12132 
C 2.683901 1.55874 3 0.795609 3 0 
C 3 -0.795609 2.683901 -1.55874 2.12132 -2.12132 
C 1.55874 -2.683901 0.795609 -3 0 -3 
C -0.795609 -3 -1.55874 -2.683901 -2.12132 -2.12132 
C -2.683901 -1.55874 -3 -0.795609 -3 0 
C -3 0.795609 -2.683901 1.55874 -2.12132 2.12132 
C -1.55874 2.683901 -0.795609 3 0 3 
z
" id="m3dce045c32" style="stroke:#ff0000;"/>
    </defs>
    <g clip-path="url(#p52508ab697)">
     <use style="fill:#ff0000;stroke:#ff0000;" x="73.832727" xlink:href="#m3dce045c32" y="295.488"/>
     <use style="fill:#ff0000;stroke:#ff0000;" x="75.062857" xlink:href="#m3dce045c32" y="295.488"/>
     <use style="fill:#ff0000;stroke:#ff0000;" x="76.226494" xlink:href="#m3dce045c32" y="295.488"/>
     <use style="fill:#ff0000;stroke:#ff0000;" x="76.725195" xlink:href="#m3dce045c32" y="295.488"/>
     <use style="fill:#ff0000;stroke:#ff0000;" x="80.847792" xlink:href="#m3dce045c32" y="295.488"/>
     <use style="fill:#ff0000;stroke:#ff0000;" x="86.001039" xlink:href="#m3dce045c32" y="295.488"/>
     <use style="fill:#ff0000;stroke:#ff0000;" x="86.100779" xlink:href="#m3dce045c32" y="295.488"/>
     <use style="fill:#ff0000;stroke:#ff0000;" x="91.254026" xlink:href="#m3dce045c32" y="295.488"/>
     <use style="fill:#ff0000;stroke:#ff0000;" x="93.115844" xlink:href="#m3dce045c32" y="53.568"/>
     <use style="fill:#ff0000;stroke:#ff0000;" x="93.514805" xlink:href="#m3dce045c32" y="295.488"/>
     <use style="fill:#ff0000;stroke:#ff0000;" x="95.50961" xlink:href="#m3dce045c32" y="295.488"/>
     <use style="fill:#ff0000;stroke:#ff0000;" x="96.839481" xlink:href="#m3dce045c32" y="295.488"/>
     <use style="fill:#ff0000;stroke:#ff0000;" x="100.396883" xlink:href="#m3dce045c32" y="295.488"/>
     <use style="fill:#ff0000;stroke:#ff0000;" x="103.588571" xlink:href="#m3dce045c32" y="295.488"/>
     <use style="fill:#ff0000;stroke:#ff0000;" x="104.253506" xlink:href="#m3dce045c32" y="295.488"/>
     <use style="fill:#ff0000;stroke:#ff0000;" x="112.332468" xlink:href="#m3dce045c32" y="295.488"/>
     <use style="fill:#ff0000;stroke:#ff0000;" x="116.322078" xlink:href="#m3dce045c32" y="295.488"/>
     <use style="fill:#ff0000;stroke:#ff0000;" x="119.281039" xlink:href="#m3dce045c32" y="295.488"/>
     <use style="fill:#ff0000;stroke:#ff0000;" x="122.107013" xlink:href="#m3dce045c32" y="295.488"/>
     <use style="fill:#ff0000;stroke:#ff0000;" x="136.802078" xlink:href="#m3dce045c32" y="295.488"/>
     <use style="fill:#ff0000;stroke:#ff0000;" x="142.653506" xlink:href="#m3dce045c32" y="295.488"/>
     <use style="fill:#ff0000;stroke:#ff0000;" x="142.686753" xlink:href="#m3dce045c32" y="295.488"/>
     <use style="fill:#ff0000;stroke:#ff0000;" x="145.678961" xlink:href="#m3dce045c32" y="295.488"/>
     <use style="fill:#ff0000;stroke:#ff0000;" x="152.361558" xlink:href="#m3dce045c32" y="295.488"/>
     <use style="fill:#ff0000;stroke:#ff0000;" x="153.192727" xlink:href="#m3dce045c32" y="295.488"/>
     <use style="fill:#ff0000;stroke:#ff0000;" x="153.924156" xlink:href="#m3dce045c32" y="295.488"/>
     <use style="fill:#ff0000;stroke:#ff0000;" x="159.609351" xlink:href="#m3dce045c32" y="295.488"/>
     <use style="fill:#ff0000;stroke:#ff0000;" x="163.2" xlink:href="#m3dce045c32" y="295.488"/>
     <use style="fill:#ff0000;stroke:#ff0000;" x="163.366234" xlink:href="#m3dce045c32" y="295.488"/>
     <use style="fill:#ff0000;stroke:#ff0000;" x="169.217662" xlink:href="#m3dce045c32" y="295.488"/>
     <use style="fill:#ff0000;stroke:#ff0000;" x="175.867013" xlink:href="#m3dce045c32" y="295.488"/>
     <use style="fill:#ff0000;stroke:#ff0000;" x="176.864416" xlink:href="#m3dce045c32" y="295.488"/>
     <use style="fill:#ff0000;stroke:#ff0000;" x="179.69039" xlink:href="#m3dce045c32" y="295.488"/>
     <use style="fill:#ff0000;stroke:#ff0000;" x="186.040519" xlink:href="#m3dce045c32" y="295.488"/>
     <use style="fill:#ff0000;stroke:#ff0000;" x="188.766753" xlink:href="#m3dce045c32" y="295.488"/>
     <use style="fill:#ff0000;stroke:#ff0000;" x="192.457143" xlink:href="#m3dce045c32" y="295.488"/>
     <use style="fill:#ff0000;stroke:#ff0000;" x="198.740779" xlink:href="#m3dce045c32" y="295.488"/>
     <use style="fill:#ff0000;stroke:#ff0000;" x="201.633247" xlink:href="#m3dce045c32" y="295.488"/>
     <use style="fill:#ff0000;stroke:#ff0000;" x="201.932468" xlink:href="#m3dce045c32" y="295.488"/>
     <use style="fill:#ff0000;stroke:#ff0000;" x="203.927273" xlink:href="#m3dce045c32" y="295.488"/>
     <use style="fill:#ff0000;stroke:#ff0000;" x="209.878442" xlink:href="#m3dce045c32" y="295.488"/>
     <use style="fill:#ff0000;stroke:#ff0000;" x="210.244156" xlink:href="#m3dce045c32" y="295.488"/>
     <use style="fill:#ff0000;stroke:#ff0000;" x="214.067532" xlink:href="#m3dce045c32" y="295.488"/>
     <use style="fill:#ff0000;stroke:#ff0000;" x="221.647792" xlink:href="#m3dce045c32" y="295.488"/>
     <use style="fill:#ff0000;stroke:#ff0000;" x="225.87013" xlink:href="#m3dce045c32" y="295.488"/>
     <use style="fill:#ff0000;stroke:#ff0000;" x="229.061818" xlink:href="#m3dce045c32" y="295.488"/>
     <use style="fill:#ff0000;stroke:#ff0000;" x="229.361039" xlink:href="#m3dce045c32" y="295.488"/>
     <use style="fill:#ff0000;stroke:#ff0000;" x="230.956883" xlink:href="#m3dce045c32" y="295.488"/>
     <use style="fill:#ff0000;stroke:#ff0000;" x="231.08987" xlink:href="#m3dce045c32" y="295.488"/>
     <use style="fill:#ff0000;stroke:#ff0000;" x="236.376104" xlink:href="#m3dce045c32" y="295.488"/>
     <use style="fill:#ff0000;stroke:#ff0000;" x="237.307013" xlink:href="#m3dce045c32" y="295.488"/>
     <use style="fill:#ff0000;stroke:#ff0000;" x="240.831169" xlink:href="#m3dce045c32" y="295.488"/>
     <use style="fill:#ff0000;stroke:#ff0000;" x="244.654545" xlink:href="#m3dce045c32" y="295.488"/>
     <use style="fill:#ff0000;stroke:#ff0000;" x="245.552208" xlink:href="#m3dce045c32" y="295.488"/>
     <use style="fill:#ff0000;stroke:#ff0000;" x="251.536623" xlink:href="#m3dce045c32" y="295.488"/>
     <use style="fill:#ff0000;stroke:#ff0000;" x="254.761558" xlink:href="#m3dce045c32" y="295.488"/>
     <use style="fill:#ff0000;stroke:#ff0000;" x="255.858701" xlink:href="#m3dce045c32" y="295.488"/>
     <use style="fill:#ff0000;stroke:#ff0000;" x="258.917403" xlink:href="#m3dce045c32" y="295.488"/>
     <use style="fill:#ff0000;stroke:#ff0000;" x="259.582338" xlink:href="#m3dce045c32" y="295.488"/>
     <use style="fill:#ff0000;stroke:#ff0000;" x="261.776623" xlink:href="#m3dce045c32" y="295.488"/>
     <use style="fill:#ff0000;stroke:#ff0000;" x="263.13974" xlink:href="#m3dce045c32" y="295.488"/>
     <use style="fill:#ff0000;stroke:#ff0000;" x="263.305974" xlink:href="#m3dce045c32" y="295.488"/>
     <use style="fill:#ff0000;stroke:#ff0000;" x="268.359481" xlink:href="#m3dce045c32" y="295.488"/>
     <use style="fill:#ff0000;stroke:#ff0000;" x="270.387532" xlink:href="#m3dce045c32" y="295.488"/>
     <use style="fill:#ff0000;stroke:#ff0000;" x="271.185455" xlink:href="#m3dce045c32" y="295.488"/>
     <use style="fill:#ff0000;stroke:#ff0000;" x="277.203117" xlink:href="#m3dce045c32" y="295.488"/>
     <use style="fill:#ff0000;stroke:#ff0000;" x="284.218182" xlink:href="#m3dce045c32" y="295.488"/>
     <use style="fill:#ff0000;stroke:#ff0000;" x="288.606753" xlink:href="#m3dce045c32" y="295.488"/>
     <use style="fill:#ff0000;stroke:#ff0000;" x="290.102857" xlink:href="#m3dce045c32" y="295.488"/>
     <use style="fill:#ff0000;stroke:#ff0000;" x="293.327792" xlink:href="#m3dce045c32" y="295.488"/>
     <use style="fill:#ff0000;stroke:#ff0000;" x="305.030649" xlink:href="#m3dce045c32" y="295.488"/>
     <use style="fill:#ff0000;stroke:#ff0000;" x="305.163636" xlink:href="#m3dce045c32" y="295.488"/>
     <use style="fill:#ff0000;stroke:#ff0000;" x="307.058701" xlink:href="#m3dce045c32" y="295.488"/>
     <use style="fill:#ff0000;stroke:#ff0000;" x="314.705455" xlink:href="#m3dce045c32" y="295.488"/>
     <use style="fill:#ff0000;stroke:#ff0000;" x="316.932987" xlink:href="#m3dce045c32" y="295.488"/>
     <use style="fill:#ff0000;stroke:#ff0000;" x="325.410909" xlink:href="#m3dce045c32" y="295.488"/>
     <use style="fill:#ff0000;stroke:#ff0000;" x="327.638442" xlink:href="#m3dce045c32" y="295.488"/>
     <use style="fill:#ff0000;stroke:#ff0000;" x="344.893506" xlink:href="#m3dce045c32" y="295.488"/>
     <use style="fill:#ff0000;stroke:#ff0000;" x="350.478961" xlink:href="#m3dce045c32" y="295.488"/>
     <use style="fill:#ff0000;stroke:#ff0000;" x="354.06961" xlink:href="#m3dce045c32" y="295.488"/>
     <use style="fill:#ff0000;stroke:#ff0000;" x="355.598961" xlink:href="#m3dce045c32" y="295.488"/>
     <use style="fill:#ff0000;stroke:#ff0000;" x="358.790649" xlink:href="#m3dce045c32" y="295.488"/>
     <use style="fill:#ff0000;stroke:#ff0000;" x="359.821299" xlink:href="#m3dce045c32" y="295.488"/>
     <use style="fill:#ff0000;stroke:#ff0000;" x="360.087273" xlink:href="#m3dce045c32" y="295.488"/>
     <use style="fill:#ff0000;stroke:#ff0000;" x="363.677922" xlink:href="#m3dce045c32" y="295.488"/>
     <use style="fill:#ff0000;stroke:#ff0000;" x="366.503896" xlink:href="#m3dce045c32" y="295.488"/>
     <use style="fill:#ff0000;stroke:#ff0000;" x="369.695584" xlink:href="#m3dce045c32" y="295.488"/>
     <use style="fill:#ff0000;stroke:#ff0000;" x="373.21974" xlink:href="#m3dce045c32" y="295.488"/>
     <use style="fill:#ff0000;stroke:#ff0000;" x="373.585455" xlink:href="#m3dce045c32" y="295.488"/>
     <use style="fill:#ff0000;stroke:#ff0000;" x="378.838442" xlink:href="#m3dce045c32" y="295.488"/>
     <use style="fill:#ff0000;stroke:#ff0000;" x="379.403636" xlink:href="#m3dce045c32" y="295.488"/>
     <use style="fill:#ff0000;stroke:#ff0000;" x="380.334545" xlink:href="#m3dce045c32" y="295.488"/>
     <use style="fill:#ff0000;stroke:#ff0000;" x="382.462338" xlink:href="#m3dce045c32" y="295.488"/>
     <use style="fill:#ff0000;stroke:#ff0000;" x="383.592727" xlink:href="#m3dce045c32" y="295.488"/>
     <use style="fill:#ff0000;stroke:#ff0000;" x="386.219221" xlink:href="#m3dce045c32" y="295.488"/>
     <use style="fill:#ff0000;stroke:#ff0000;" x="387.848312" xlink:href="#m3dce045c32" y="295.488"/>
     <use style="fill:#ff0000;stroke:#ff0000;" x="389.776623" xlink:href="#m3dce045c32" y="295.488"/>
     <use style="fill:#ff0000;stroke:#ff0000;" x="390.873766" xlink:href="#m3dce045c32" y="295.488"/>
     <use style="fill:#ff0000;stroke:#ff0000;" x="398.487273" xlink:href="#m3dce045c32" y="295.488"/>
    </g>
   </g>
   <g id="patch_3">
    <path d="M 57.6 307.584 
L 57.6 41.472 
" style="fill:none;stroke:#000000;stroke-linecap:square;stroke-linejoin:miter;stroke-width:0.8;"/>
   </g>
   <g id="patch_4">
    <path d="M 414.72 307.584 
L 414.72 41.472 
" style="fill:none;stroke:#000000;stroke-linecap:square;stroke-linejoin:miter;stroke-width:0.8;"/>
   </g>
   <g id="patch_5">
    <path d="M 57.6 307.584 
L 414.72 307.584 
" style="fill:none;stroke:#000000;stroke-linecap:square;stroke-linejoin:miter;stroke-width:0.8;"/>
   </g>
   <g id="patch_6">
    <path d="M 57.6 41.472 
L 414.72 41.472 
" style="fill:none;stroke:#000000;stroke-linecap:square;stroke-linejoin:miter;stroke-width:0.8;"/>
   </g>
  </g>
 </g>
 <defs>
  <clipPath id="p52508ab697">
   <rect height="266.112" width="357.12" x="57.6" y="41.472"/>
  </clipPath>
 </defs>
</svg>
