<?xml version="1.0" encoding="utf-8" standalone="no"?>
<!DOCTYPE svg PUBLIC "-//W3C//DTD SVG 1.1//EN"
  "http://www.w3.org/Graphics/SVG/1.1/DTD/svg11.dtd">
<!-- Created with matplotlib (http://matplotlib.org/) -->
<svg height="345pt" version="1.1" viewBox="0 0 460 345" width="460pt" xmlns="http://www.w3.org/2000/svg" xmlns:xlink="http://www.w3.org/1999/xlink">
 <defs>
  <style type="text/css">
*{stroke-linecap:butt;stroke-linejoin:round;}
  </style>
 </defs>
 <g id="figure_1">
  <g id="patch_1">
   <path d="M 0 345.6 
L 460.8 345.6 
L 460.8 0 
L 0 0 
z
" style="fill:#ffffff;"/>
  </g>
  <g id="axes_1">
   <g id="patch_2">
    <path d="M 57.6 307.584 
L 414.72 307.584 
L 414.72 41.472 
L 57.6 41.472 
z
" style="fill:#ffffff;"/>
   </g>
   <g id="matplotlib.axis_1">
    <g id="xtick_1">
     <g id="line2d_1">
      <defs>
       <path d="M 0 0 
L 0 3.5 
" id="m1133097c37" style="stroke:#000000;stroke-width:0.8;"/>
      </defs>
      <g>
       <use style="stroke:#000000;stroke-width:0.8;" x="73.147664" xlink:href="#m1133097c37" y="307.584"/>
      </g>
     </g>
     <g id="text_1">
      <!-- 0 -->
      <defs>
       <path d="M 31.78125 66.40625 
Q 24.171875 66.40625 20.328125 58.90625 
Q 16.5 51.421875 16.5 36.375 
Q 16.5 21.390625 20.328125 13.890625 
Q 24.171875 6.390625 31.78125 6.390625 
Q 39.453125 6.390625 43.28125 13.890625 
Q 47.125 21.390625 47.125 36.375 
Q 47.125 51.421875 43.28125 58.90625 
Q 39.453125 66.40625 31.78125 66.40625 
z
M 31.78125 74.21875 
Q 44.046875 74.21875 50.515625 64.515625 
Q 56.984375 54.828125 56.984375 36.375 
Q 56.984375 17.96875 50.515625 8.265625 
Q 44.046875 -1.421875 31.78125 -1.421875 
Q 19.53125 -1.421875 13.0625 8.265625 
Q 6.59375 17.96875 6.59375 36.375 
Q 6.59375 54.828125 13.0625 64.515625 
Q 19.53125 74.21875 31.78125 74.21875 
z
" id="DejaVuSans-30"/>
      </defs>
      <g transform="translate(69.966414 322.182437)scale(0.1 -0.1)">
       <use xlink:href="#DejaVuSans-30"/>
      </g>
     </g>
    </g>
    <g id="xtick_2">
     <g id="line2d_2">
      <g>
       <use style="stroke:#000000;stroke-width:0.8;" x="138.391745" xlink:href="#m1133097c37" y="307.584"/>
      </g>
     </g>
     <g id="text_2">
      <!-- 2000 -->
      <defs>
       <path d="M 19.1875 8.296875 
L 53.609375 8.296875 
L 53.609375 0 
L 7.328125 0 
L 7.328125 8.296875 
Q 12.9375 14.109375 22.625 23.890625 
Q 32.328125 33.6875 34.8125 36.53125 
Q 39.546875 41.84375 41.421875 45.53125 
Q 43.3125 49.21875 43.3125 52.78125 
Q 43.3125 58.59375 39.234375 62.25 
Q 35.15625 65.921875 28.609375 65.921875 
Q 23.96875 65.921875 18.8125 64.3125 
Q 13.671875 62.703125 7.8125 59.421875 
L 7.8125 69.390625 
Q 13.765625 71.78125 18.9375 73 
Q 24.125 74.21875 28.421875 74.21875 
Q 39.75 74.21875 46.484375 68.546875 
Q 53.21875 62.890625 53.21875 53.421875 
Q 53.21875 48.921875 51.53125 44.890625 
Q 49.859375 40.875 45.40625 35.40625 
Q 44.1875 33.984375 37.640625 27.21875 
Q 31.109375 20.453125 19.1875 8.296875 
z
" id="DejaVuSans-32"/>
      </defs>
      <g transform="translate(125.666745 322.182437)scale(0.1 -0.1)">
       <use xlink:href="#DejaVuSans-32"/>
       <use x="63.623047" xlink:href="#DejaVuSans-30"/>
       <use x="127.246094" xlink:href="#DejaVuSans-30"/>
       <use x="190.869141" xlink:href="#DejaVuSans-30"/>
      </g>
     </g>
    </g>
    <g id="xtick_3">
     <g id="line2d_3">
      <g>
       <use style="stroke:#000000;stroke-width:0.8;" x="203.635826" xlink:href="#m1133097c37" y="307.584"/>
      </g>
     </g>
     <g id="text_3">
      <!-- 4000 -->
      <defs>
       <path d="M 37.796875 64.3125 
L 12.890625 25.390625 
L 37.796875 25.390625 
z
M 35.203125 72.90625 
L 47.609375 72.90625 
L 47.609375 25.390625 
L 58.015625 25.390625 
L 58.015625 17.1875 
L 47.609375 17.1875 
L 47.609375 0 
L 37.796875 0 
L 37.796875 17.1875 
L 4.890625 17.1875 
L 4.890625 26.703125 
z
" id="DejaVuSans-34"/>
      </defs>
      <g transform="translate(190.910826 322.182437)scale(0.1 -0.1)">
       <use xlink:href="#DejaVuSans-34"/>
       <use x="63.623047" xlink:href="#DejaVuSans-30"/>
       <use x="127.246094" xlink:href="#DejaVuSans-30"/>
       <use x="190.869141" xlink:href="#DejaVuSans-30"/>
      </g>
     </g>
    </g>
    <g id="xtick_4">
     <g id="line2d_4">
      <g>
       <use style="stroke:#000000;stroke-width:0.8;" x="268.879906" xlink:href="#m1133097c37" y="307.584"/>
      </g>
     </g>
     <g id="text_4">
      <!-- 6000 -->
      <defs>
       <path d="M 33.015625 40.375 
Q 26.375 40.375 22.484375 35.828125 
Q 18.609375 31.296875 18.609375 23.390625 
Q 18.609375 15.53125 22.484375 10.953125 
Q 26.375 6.390625 33.015625 6.390625 
Q 39.65625 6.390625 43.53125 10.953125 
Q 47.40625 15.53125 47.40625 23.390625 
Q 47.40625 31.296875 43.53125 35.828125 
Q 39.65625 40.375 33.015625 40.375 
z
M 52.59375 71.296875 
L 52.59375 62.3125 
Q 48.875 64.0625 45.09375 64.984375 
Q 41.3125 65.921875 37.59375 65.921875 
Q 27.828125 65.921875 22.671875 59.328125 
Q 17.53125 52.734375 16.796875 39.40625 
Q 19.671875 43.65625 24.015625 45.921875 
Q 28.375 48.1875 33.59375 48.1875 
Q 44.578125 48.1875 50.953125 41.515625 
Q 57.328125 34.859375 57.328125 23.390625 
Q 57.328125 12.15625 50.6875 5.359375 
Q 44.046875 -1.421875 33.015625 -1.421875 
Q 20.359375 -1.421875 13.671875 8.265625 
Q 6.984375 17.96875 6.984375 36.375 
Q 6.984375 53.65625 15.1875 63.9375 
Q 23.390625 74.21875 37.203125 74.21875 
Q 40.921875 74.21875 44.703125 73.484375 
Q 48.484375 72.75 52.59375 71.296875 
z
" id="DejaVuSans-36"/>
      </defs>
      <g transform="translate(256.154906 322.182437)scale(0.1 -0.1)">
       <use xlink:href="#DejaVuSans-36"/>
       <use x="63.623047" xlink:href="#DejaVuSans-30"/>
       <use x="127.246094" xlink:href="#DejaVuSans-30"/>
       <use x="190.869141" xlink:href="#DejaVuSans-30"/>
      </g>
     </g>
    </g>
    <g id="xtick_5">
     <g id="line2d_5">
      <g>
       <use style="stroke:#000000;stroke-width:0.8;" x="334.123987" xlink:href="#m1133097c37" y="307.584"/>
      </g>
     </g>
     <g id="text_5">
      <!-- 8000 -->
      <defs>
       <path d="M 31.78125 34.625 
Q 24.75 34.625 20.71875 30.859375 
Q 16.703125 27.09375 16.703125 20.515625 
Q 16.703125 13.921875 20.71875 10.15625 
Q 24.75 6.390625 31.78125 6.390625 
Q 38.8125 6.390625 42.859375 10.171875 
Q 46.921875 13.96875 46.921875 20.515625 
Q 46.921875 27.09375 42.890625 30.859375 
Q 38.875 34.625 31.78125 34.625 
z
M 21.921875 38.8125 
Q 15.578125 40.375 12.03125 44.71875 
Q 8.5 49.078125 8.5 55.328125 
Q 8.5 64.0625 14.71875 69.140625 
Q 20.953125 74.21875 31.78125 74.21875 
Q 42.671875 74.21875 48.875 69.140625 
Q 55.078125 64.0625 55.078125 55.328125 
Q 55.078125 49.078125 51.53125 44.71875 
Q 48 40.375 41.703125 38.8125 
Q 48.828125 37.15625 52.796875 32.3125 
Q 56.78125 27.484375 56.78125 20.515625 
Q 56.78125 9.90625 50.3125 4.234375 
Q 43.84375 -1.421875 31.78125 -1.421875 
Q 19.734375 -1.421875 13.25 4.234375 
Q 6.78125 9.90625 6.78125 20.515625 
Q 6.78125 27.484375 10.78125 32.3125 
Q 14.796875 37.15625 21.921875 38.8125 
z
M 18.3125 54.390625 
Q 18.3125 48.734375 21.84375 45.5625 
Q 25.390625 42.390625 31.78125 42.390625 
Q 38.140625 42.390625 41.71875 45.5625 
Q 45.3125 48.734375 45.3125 54.390625 
Q 45.3125 60.0625 41.71875 63.234375 
Q 38.140625 66.40625 31.78125 66.40625 
Q 25.390625 66.40625 21.84375 63.234375 
Q 18.3125 60.0625 18.3125 54.390625 
z
" id="DejaVuSans-38"/>
      </defs>
      <g transform="translate(321.398987 322.182437)scale(0.1 -0.1)">
       <use xlink:href="#DejaVuSans-38"/>
       <use x="63.623047" xlink:href="#DejaVuSans-30"/>
       <use x="127.246094" xlink:href="#DejaVuSans-30"/>
       <use x="190.869141" xlink:href="#DejaVuSans-30"/>
      </g>
     </g>
    </g>
    <g id="xtick_6">
     <g id="line2d_6">
      <g>
       <use style="stroke:#000000;stroke-width:0.8;" x="399.368068" xlink:href="#m1133097c37" y="307.584"/>
      </g>
     </g>
     <g id="text_6">
      <!-- 10000 -->
      <defs>
       <path d="M 12.40625 8.296875 
L 28.515625 8.296875 
L 28.515625 63.921875 
L 10.984375 60.40625 
L 10.984375 69.390625 
L 28.421875 72.90625 
L 38.28125 72.90625 
L 38.28125 8.296875 
L 54.390625 8.296875 
L 54.390625 0 
L 12.40625 0 
z
" id="DejaVuSans-31"/>
      </defs>
      <g transform="translate(383.461818 322.182437)scale(0.1 -0.1)">
       <use xlink:href="#DejaVuSans-31"/>
       <use x="63.623047" xlink:href="#DejaVuSans-30"/>
       <use x="127.246094" xlink:href="#DejaVuSans-30"/>
       <use x="190.869141" xlink:href="#DejaVuSans-30"/>
       <use x="254.492188" xlink:href="#DejaVuSans-30"/>
      </g>
     </g>
    </g>
   </g>
   <g id="matplotlib.axis_2">
    <g id="ytick_1">
     <g id="line2d_7">
      <defs>
       <path d="M 0 0 
L -3.5 0 
" id="me2c824fd30" style="stroke:#000000;stroke-width:0.8;"/>
      </defs>
      <g>
       <use style="stroke:#000000;stroke-width:0.8;" x="57.6" xlink:href="#me2c824fd30" y="295.488"/>
      </g>
     </g>
     <g id="text_7">
      <!-- 1.0 -->
      <defs>
       <path d="M 10.6875 12.40625 
L 21 12.40625 
L 21 0 
L 10.6875 0 
z
" id="DejaVuSans-2e"/>
      </defs>
      <g transform="translate(34.696875 299.287219)scale(0.1 -0.1)">
       <use xlink:href="#DejaVuSans-31"/>
       <use x="63.623047" xlink:href="#DejaVuSans-2e"/>
       <use x="95.410156" xlink:href="#DejaVuSans-30"/>
      </g>
     </g>
    </g>
    <g id="ytick_2">
     <g id="line2d_8">
      <g>
       <use style="stroke:#000000;stroke-width:0.8;" x="57.6" xlink:href="#me2c824fd30" y="247.104"/>
      </g>
     </g>
     <g id="text_8">
      <!-- 1.2 -->
      <g transform="translate(34.696875 250.903219)scale(0.1 -0.1)">
       <use xlink:href="#DejaVuSans-31"/>
       <use x="63.623047" xlink:href="#DejaVuSans-2e"/>
       <use x="95.410156" xlink:href="#DejaVuSans-32"/>
      </g>
     </g>
    </g>
    <g id="ytick_3">
     <g id="line2d_9">
      <g>
       <use style="stroke:#000000;stroke-width:0.8;" x="57.6" xlink:href="#me2c824fd30" y="198.72"/>
      </g>
     </g>
     <g id="text_9">
      <!-- 1.4 -->
      <g transform="translate(34.696875 202.519219)scale(0.1 -0.1)">
       <use xlink:href="#DejaVuSans-31"/>
       <use x="63.623047" xlink:href="#DejaVuSans-2e"/>
       <use x="95.410156" xlink:href="#DejaVuSans-34"/>
      </g>
     </g>
    </g>
    <g id="ytick_4">
     <g id="line2d_10">
      <g>
       <use style="stroke:#000000;stroke-width:0.8;" x="57.6" xlink:href="#me2c824fd30" y="150.336"/>
      </g>
     </g>
     <g id="text_10">
      <!-- 1.6 -->
      <g transform="translate(34.696875 154.135219)scale(0.1 -0.1)">
       <use xlink:href="#DejaVuSans-31"/>
       <use x="63.623047" xlink:href="#DejaVuSans-2e"/>
       <use x="95.410156" xlink:href="#DejaVuSans-36"/>
      </g>
     </g>
    </g>
    <g id="ytick_5">
     <g id="line2d_11">
      <g>
       <use style="stroke:#000000;stroke-width:0.8;" x="57.6" xlink:href="#me2c824fd30" y="101.952"/>
      </g>
     </g>
     <g id="text_11">
      <!-- 1.8 -->
      <g transform="translate(34.696875 105.751219)scale(0.1 -0.1)">
       <use xlink:href="#DejaVuSans-31"/>
       <use x="63.623047" xlink:href="#DejaVuSans-2e"/>
       <use x="95.410156" xlink:href="#DejaVuSans-38"/>
      </g>
     </g>
    </g>
    <g id="ytick_6">
     <g id="line2d_12">
      <g>
       <use style="stroke:#000000;stroke-width:0.8;" x="57.6" xlink:href="#me2c824fd30" y="53.568"/>
      </g>
     </g>
     <g id="text_12">
      <!-- 2.0 -->
      <g transform="translate(34.696875 57.367219)scale(0.1 -0.1)">
       <use xlink:href="#DejaVuSans-32"/>
       <use x="63.623047" xlink:href="#DejaVuSans-2e"/>
       <use x="95.410156" xlink:href="#DejaVuSans-30"/>
      </g>
     </g>
    </g>
   </g>
   <g id="line2d_13">
    <defs>
     <path d="M 0 3 
C 0.795609 3 1.55874 2.683901 2.12132 2.12132 
C 2.683901 1.55874 3 0.795609 3 0 
C 3 -0.795609 2.683901 -1.55874 2.12132 -2.12132 
C 1.55874 -2.683901 0.795609 -3 0 -3 
C -0.795609 -3 -1.55874 -2.683901 -2.12132 -2.12132 
C -2.683901 -1.55874 -3 -0.795609 -3 0 
C -3 0.795609 -2.683901 1.55874 -2.12132 2.12132 
C -1.55874 2.683901 -0.795609 3 0 3 
z
" id="m8f2fc8b8ae" style="stroke:#008000;"/>
    </defs>
    <g clip-path="url(#pb653227e8c)">
     <use style="fill:#008000;stroke:#008000;" x="73.832727" xlink:href="#m8f2fc8b8ae" y="295.488"/>
     <use style="fill:#008000;stroke:#008000;" x="76.670845" xlink:href="#m8f2fc8b8ae" y="295.488"/>
     <use style="fill:#008000;stroke:#008000;" x="78.008348" xlink:href="#m8f2fc8b8ae" y="295.488"/>
     <use style="fill:#008000;stroke:#008000;" x="78.595545" xlink:href="#m8f2fc8b8ae" y="295.488"/>
     <use style="fill:#008000;stroke:#008000;" x="79.933049" xlink:href="#m8f2fc8b8ae" y="295.488"/>
     <use style="fill:#008000;stroke:#008000;" x="80.650734" xlink:href="#m8f2fc8b8ae" y="295.488"/>
     <use style="fill:#008000;stroke:#008000;" x="80.683356" xlink:href="#m8f2fc8b8ae" y="295.488"/>
     <use style="fill:#008000;stroke:#008000;" x="82.542812" xlink:href="#m8f2fc8b8ae" y="295.488"/>
     <use style="fill:#008000;stroke:#008000;" x="87.501362" xlink:href="#m8f2fc8b8ae" y="295.488"/>
     <use style="fill:#008000;stroke:#008000;" x="90.894054" xlink:href="#m8f2fc8b8ae" y="295.488"/>
     <use style="fill:#008000;stroke:#008000;" x="92.166314" xlink:href="#m8f2fc8b8ae" y="295.488"/>
     <use style="fill:#008000;stroke:#008000;" x="93.079731" xlink:href="#m8f2fc8b8ae" y="295.488"/>
     <use style="fill:#008000;stroke:#008000;" x="97.842549" xlink:href="#m8f2fc8b8ae" y="295.488"/>
     <use style="fill:#008000;stroke:#008000;" x="99.799871" xlink:href="#m8f2fc8b8ae" y="295.488"/>
     <use style="fill:#008000;stroke:#008000;" x="104.334335" xlink:href="#m8f2fc8b8ae" y="295.488"/>
     <use style="fill:#008000;stroke:#008000;" x="107.13983" xlink:href="#m8f2fc8b8ae" y="295.488"/>
     <use style="fill:#008000;stroke:#008000;" x="107.205075" xlink:href="#m8f2fc8b8ae" y="295.488"/>
     <use style="fill:#008000;stroke:#008000;" x="108.477334" xlink:href="#m8f2fc8b8ae" y="295.488"/>
     <use style="fill:#008000;stroke:#008000;" x="113.011798" xlink:href="#m8f2fc8b8ae" y="295.488"/>
     <use style="fill:#008000;stroke:#008000;" x="113.827349" xlink:href="#m8f2fc8b8ae" y="295.488"/>
     <use style="fill:#008000;stroke:#008000;" x="116.632844" xlink:href="#m8f2fc8b8ae" y="295.488"/>
     <use style="fill:#008000;stroke:#008000;" x="124.23378" xlink:href="#m8f2fc8b8ae" y="295.488"/>
     <use style="fill:#008000;stroke:#008000;" x="124.951464" xlink:href="#m8f2fc8b8ae" y="295.488"/>
     <use style="fill:#008000;stroke:#008000;" x="130.301479" xlink:href="#m8f2fc8b8ae" y="295.488"/>
     <use style="fill:#008000;stroke:#008000;" x="130.334101" xlink:href="#m8f2fc8b8ae" y="295.488"/>
     <use style="fill:#008000;stroke:#008000;" x="130.399345" xlink:href="#m8f2fc8b8ae" y="295.488"/>
     <use style="fill:#008000;stroke:#008000;" x="133.367951" xlink:href="#m8f2fc8b8ae" y="295.488"/>
     <use style="fill:#008000;stroke:#008000;" x="133.694171" xlink:href="#m8f2fc8b8ae" y="295.488"/>
     <use style="fill:#008000;stroke:#008000;" x="133.792037" xlink:href="#m8f2fc8b8ae" y="295.488"/>
     <use style="fill:#008000;stroke:#008000;" x="135.521006" xlink:href="#m8f2fc8b8ae" y="295.488"/>
     <use style="fill:#008000;stroke:#008000;" x="137.054241" xlink:href="#m8f2fc8b8ae" y="295.488"/>
     <use style="fill:#008000;stroke:#008000;" x="139.174674" xlink:href="#m8f2fc8b8ae" y="295.488"/>
     <use style="fill:#008000;stroke:#008000;" x="142.208524" xlink:href="#m8f2fc8b8ae" y="295.488"/>
     <use style="fill:#008000;stroke:#008000;" x="144.589933" xlink:href="#m8f2fc8b8ae" y="295.488"/>
     <use style="fill:#008000;stroke:#008000;" x="145.470728" xlink:href="#m8f2fc8b8ae" y="295.488"/>
     <use style="fill:#008000;stroke:#008000;" x="148.667688" xlink:href="#m8f2fc8b8ae" y="295.488"/>
     <use style="fill:#008000;stroke:#008000;" x="149.287507" xlink:href="#m8f2fc8b8ae" y="295.488"/>
     <use style="fill:#008000;stroke:#008000;" x="152.614955" xlink:href="#m8f2fc8b8ae" y="295.488"/>
     <use style="fill:#008000;stroke:#008000;" x="153.593616" xlink:href="#m8f2fc8b8ae" y="295.488"/>
     <use style="fill:#008000;stroke:#008000;" x="155.159474" xlink:href="#m8f2fc8b8ae" y="295.488"/>
     <use style="fill:#008000;stroke:#008000;" x="156.823198" xlink:href="#m8f2fc8b8ae" y="295.488"/>
     <use style="fill:#008000;stroke:#008000;" x="158.911008" xlink:href="#m8f2fc8b8ae" y="295.488"/>
     <use style="fill:#008000;stroke:#008000;" x="158.976253" xlink:href="#m8f2fc8b8ae" y="295.488"/>
     <use style="fill:#008000;stroke:#008000;" x="160.998819" xlink:href="#m8f2fc8b8ae" y="295.488"/>
     <use style="fill:#008000;stroke:#008000;" x="161.259795" xlink:href="#m8f2fc8b8ae" y="295.488"/>
     <use style="fill:#008000;stroke:#008000;" x="161.81437" xlink:href="#m8f2fc8b8ae" y="295.488"/>
     <use style="fill:#008000;stroke:#008000;" x="161.879614" xlink:href="#m8f2fc8b8ae" y="295.488"/>
     <use style="fill:#008000;stroke:#008000;" x="164.097913" xlink:href="#m8f2fc8b8ae" y="295.488"/>
     <use style="fill:#008000;stroke:#008000;" x="164.587243" xlink:href="#m8f2fc8b8ae" y="295.488"/>
     <use style="fill:#008000;stroke:#008000;" x="164.946086" xlink:href="#m8f2fc8b8ae" y="295.488"/>
     <use style="fill:#008000;stroke:#008000;" x="165.794259" xlink:href="#m8f2fc8b8ae" y="295.488"/>
     <use style="fill:#008000;stroke:#008000;" x="166.511944" xlink:href="#m8f2fc8b8ae" y="295.488"/>
     <use style="fill:#008000;stroke:#008000;" x="166.805542" xlink:href="#m8f2fc8b8ae" y="295.488"/>
     <use style="fill:#008000;stroke:#008000;" x="168.436644" xlink:href="#m8f2fc8b8ae" y="295.488"/>
     <use style="fill:#008000;stroke:#008000;" x="170.230856" xlink:href="#m8f2fc8b8ae" y="295.488"/>
     <use style="fill:#008000;stroke:#008000;" x="170.296101" xlink:href="#m8f2fc8b8ae" y="295.488"/>
     <use style="fill:#008000;stroke:#008000;" x="172.025069" xlink:href="#m8f2fc8b8ae" y="295.488"/>
     <use style="fill:#008000;stroke:#008000;" x="172.155557" xlink:href="#m8f2fc8b8ae" y="295.488"/>
     <use style="fill:#008000;stroke:#008000;" x="173.460438" xlink:href="#m8f2fc8b8ae" y="295.488"/>
     <use style="fill:#008000;stroke:#008000;" x="175.776603" xlink:href="#m8f2fc8b8ae" y="295.488"/>
     <use style="fill:#008000;stroke:#008000;" x="177.603438" xlink:href="#m8f2fc8b8ae" y="295.488"/>
     <use style="fill:#008000;stroke:#008000;" x="178.484233" xlink:href="#m8f2fc8b8ae" y="295.488"/>
     <use style="fill:#008000;stroke:#008000;" x="179.071429" xlink:href="#m8f2fc8b8ae" y="295.488"/>
     <use style="fill:#008000;stroke:#008000;" x="180.050091" xlink:href="#m8f2fc8b8ae" y="295.488"/>
     <use style="fill:#008000;stroke:#008000;" x="180.930886" xlink:href="#m8f2fc8b8ae" y="295.488"/>
     <use style="fill:#008000;stroke:#008000;" x="181.550704" xlink:href="#m8f2fc8b8ae" y="295.488"/>
     <use style="fill:#008000;stroke:#008000;" x="183.573271" xlink:href="#m8f2fc8b8ae" y="295.488"/>
     <use style="fill:#008000;stroke:#008000;" x="184.3562" xlink:href="#m8f2fc8b8ae" y="295.488"/>
     <use style="fill:#008000;stroke:#008000;" x="189.836703" xlink:href="#m8f2fc8b8ae" y="295.488"/>
     <use style="fill:#008000;stroke:#008000;" x="190.032435" xlink:href="#m8f2fc8b8ae" y="295.488"/>
     <use style="fill:#008000;stroke:#008000;" x="190.358655" xlink:href="#m8f2fc8b8ae" y="295.488"/>
     <use style="fill:#008000;stroke:#008000;" x="190.521766" xlink:href="#m8f2fc8b8ae" y="295.488"/>
     <use style="fill:#008000;stroke:#008000;" x="191.206828" xlink:href="#m8f2fc8b8ae" y="295.488"/>
     <use style="fill:#008000;stroke:#008000;" x="191.794025" xlink:href="#m8f2fc8b8ae" y="295.488"/>
     <use style="fill:#008000;stroke:#008000;" x="192.283356" xlink:href="#m8f2fc8b8ae" y="295.488"/>
     <use style="fill:#008000;stroke:#008000;" x="193.490371" xlink:href="#m8f2fc8b8ae" y="295.488"/>
     <use style="fill:#008000;stroke:#008000;" x="193.620859" xlink:href="#m8f2fc8b8ae" y="295.488"/>
     <use style="fill:#008000;stroke:#008000;" x="195.121473" xlink:href="#m8f2fc8b8ae" y="295.488"/>
     <use style="fill:#008000;stroke:#008000;" x="195.676048" xlink:href="#m8f2fc8b8ae" y="295.488"/>
     <use style="fill:#008000;stroke:#008000;" x="202.037346" xlink:href="#m8f2fc8b8ae" y="295.488"/>
     <use style="fill:#008000;stroke:#008000;" x="203.244361" xlink:href="#m8f2fc8b8ae" y="295.488"/>
     <use style="fill:#008000;stroke:#008000;" x="203.668448" xlink:href="#m8f2fc8b8ae" y="295.488"/>
     <use style="fill:#008000;stroke:#008000;" x="204.549243" xlink:href="#m8f2fc8b8ae" y="295.488"/>
     <use style="fill:#008000;stroke:#008000;" x="207.322116" xlink:href="#m8f2fc8b8ae" y="295.488"/>
     <use style="fill:#008000;stroke:#008000;" x="207.811447" xlink:href="#m8f2fc8b8ae" y="295.488"/>
     <use style="fill:#008000;stroke:#008000;" x="213.61817" xlink:href="#m8f2fc8b8ae" y="295.488"/>
     <use style="fill:#008000;stroke:#008000;" x="217.598059" xlink:href="#m8f2fc8b8ae" y="295.488"/>
     <use style="fill:#008000;stroke:#008000;" x="220.827641" xlink:href="#m8f2fc8b8ae" y="295.488"/>
     <use style="fill:#008000;stroke:#008000;" x="220.892885" xlink:href="#m8f2fc8b8ae" y="295.488"/>
     <use style="fill:#008000;stroke:#008000;" x="221.023373" xlink:href="#m8f2fc8b8ae" y="295.488"/>
     <use style="fill:#008000;stroke:#008000;" x="221.055995" xlink:href="#m8f2fc8b8ae" y="295.488"/>
     <use style="fill:#008000;stroke:#008000;" x="226.895341" xlink:href="#m8f2fc8b8ae" y="295.488"/>
     <use style="fill:#008000;stroke:#008000;" x="226.993207" xlink:href="#m8f2fc8b8ae" y="295.488"/>
     <use style="fill:#008000;stroke:#008000;" x="227.710892" xlink:href="#m8f2fc8b8ae" y="295.488"/>
     <use style="fill:#008000;stroke:#008000;" x="228.428576" xlink:href="#m8f2fc8b8ae" y="295.488"/>
     <use style="fill:#008000;stroke:#008000;" x="230.875229" xlink:href="#m8f2fc8b8ae" y="295.488"/>
     <use style="fill:#008000;stroke:#008000;" x="232.897796" xlink:href="#m8f2fc8b8ae" y="295.488"/>
     <use style="fill:#008000;stroke:#008000;" x="232.930418" xlink:href="#m8f2fc8b8ae" y="295.488"/>
     <use style="fill:#008000;stroke:#008000;" x="234.104811" xlink:href="#m8f2fc8b8ae" y="295.488"/>
     <use style="fill:#008000;stroke:#008000;" x="235.213961" xlink:href="#m8f2fc8b8ae" y="295.488"/>
     <use style="fill:#008000;stroke:#008000;" x="235.540181" xlink:href="#m8f2fc8b8ae" y="295.488"/>
     <use style="fill:#008000;stroke:#008000;" x="237.823724" xlink:href="#m8f2fc8b8ae" y="295.488"/>
     <use style="fill:#008000;stroke:#008000;" x="238.052078" xlink:href="#m8f2fc8b8ae" y="295.488"/>
     <use style="fill:#008000;stroke:#008000;" x="238.606653" xlink:href="#m8f2fc8b8ae" y="295.488"/>
     <use style="fill:#008000;stroke:#008000;" x="239.715802" xlink:href="#m8f2fc8b8ae" y="295.488"/>
     <use style="fill:#008000;stroke:#008000;" x="242.423432" xlink:href="#m8f2fc8b8ae" y="295.488"/>
     <use style="fill:#008000;stroke:#008000;" x="242.782274" xlink:href="#m8f2fc8b8ae" y="295.488"/>
     <use style="fill:#008000;stroke:#008000;" x="243.565203" xlink:href="#m8f2fc8b8ae" y="295.488"/>
     <use style="fill:#008000;stroke:#008000;" x="244.739597" xlink:href="#m8f2fc8b8ae" y="295.488"/>
     <use style="fill:#008000;stroke:#008000;" x="249.013084" xlink:href="#m8f2fc8b8ae" y="295.488"/>
     <use style="fill:#008000;stroke:#008000;" x="249.241438" xlink:href="#m8f2fc8b8ae" y="295.488"/>
     <use style="fill:#008000;stroke:#008000;" x="251.068272" xlink:href="#m8f2fc8b8ae" y="295.488"/>
     <use style="fill:#008000;stroke:#008000;" x="251.231383" xlink:href="#m8f2fc8b8ae" y="295.488"/>
     <use style="fill:#008000;stroke:#008000;" x="253.808524" xlink:href="#m8f2fc8b8ae" y="295.488"/>
     <use style="fill:#008000;stroke:#008000;" x="258.114633" xlink:href="#m8f2fc8b8ae" y="295.488"/>
     <use style="fill:#008000;stroke:#008000;" x="259.02805" xlink:href="#m8f2fc8b8ae" y="295.488"/>
     <use style="fill:#008000;stroke:#008000;" x="260.659152" xlink:href="#m8f2fc8b8ae" y="295.488"/>
     <use style="fill:#008000;stroke:#008000;" x="260.952751" xlink:href="#m8f2fc8b8ae" y="295.488"/>
     <use style="fill:#008000;stroke:#008000;" x="262.420742" xlink:href="#m8f2fc8b8ae" y="295.488"/>
     <use style="fill:#008000;stroke:#008000;" x="268.227466" xlink:href="#m8f2fc8b8ae" y="295.488"/>
     <use style="fill:#008000;stroke:#008000;" x="269.271371" xlink:href="#m8f2fc8b8ae" y="295.488"/>
     <use style="fill:#008000;stroke:#008000;" x="269.303993" xlink:href="#m8f2fc8b8ae" y="295.488"/>
     <use style="fill:#008000;stroke:#008000;" x="270.38052" xlink:href="#m8f2fc8b8ae" y="295.488"/>
     <use style="fill:#008000;stroke:#008000;" x="271.032961" xlink:href="#m8f2fc8b8ae" y="295.488"/>
     <use style="fill:#008000;stroke:#008000;" x="272.631441" xlink:href="#m8f2fc8b8ae" y="295.488"/>
     <use style="fill:#008000;stroke:#008000;" x="272.827173" xlink:href="#m8f2fc8b8ae" y="295.488"/>
     <use style="fill:#008000;stroke:#008000;" x="273.186016" xlink:href="#m8f2fc8b8ae" y="295.488"/>
     <use style="fill:#008000;stroke:#008000;" x="274.490897" xlink:href="#m8f2fc8b8ae" y="295.488"/>
     <use style="fill:#008000;stroke:#008000;" x="275.828401" xlink:href="#m8f2fc8b8ae" y="295.488"/>
     <use style="fill:#008000;stroke:#008000;" x="277.655235" xlink:href="#m8f2fc8b8ae" y="295.488"/>
     <use style="fill:#008000;stroke:#008000;" x="287.148249" xlink:href="#m8f2fc8b8ae" y="295.488"/>
     <use style="fill:#008000;stroke:#008000;" x="290.247343" xlink:href="#m8f2fc8b8ae" y="295.488"/>
     <use style="fill:#008000;stroke:#008000;" x="291.421736" xlink:href="#m8f2fc8b8ae" y="295.488"/>
     <use style="fill:#008000;stroke:#008000;" x="291.584847" xlink:href="#m8f2fc8b8ae" y="295.488"/>
     <use style="fill:#008000;stroke:#008000;" x="295.336381" xlink:href="#m8f2fc8b8ae" y="295.488"/>
     <use style="fill:#008000;stroke:#008000;" x="297.032727" xlink:href="#m8f2fc8b8ae" y="295.488"/>
     <use style="fill:#008000;stroke:#008000;" x="297.39157" xlink:href="#m8f2fc8b8ae" y="295.488"/>
     <use style="fill:#008000;stroke:#008000;" x="298.272365" xlink:href="#m8f2fc8b8ae" y="295.488"/>
     <use style="fill:#008000;stroke:#008000;" x="298.957428" xlink:href="#m8f2fc8b8ae" y="295.488"/>
     <use style="fill:#008000;stroke:#008000;" x="300.458042" xlink:href="#m8f2fc8b8ae" y="295.488"/>
     <use style="fill:#008000;stroke:#008000;" x="300.58853" xlink:href="#m8f2fc8b8ae" y="295.488"/>
     <use style="fill:#008000;stroke:#008000;" x="301.338837" xlink:href="#m8f2fc8b8ae" y="295.488"/>
     <use style="fill:#008000;stroke:#008000;" x="302.741584" xlink:href="#m8f2fc8b8ae" y="295.488"/>
     <use style="fill:#008000;stroke:#008000;" x="305.8733" xlink:href="#m8f2fc8b8ae" y="295.488"/>
     <use style="fill:#008000;stroke:#008000;" x="309.363859" xlink:href="#m8f2fc8b8ae" y="295.488"/>
     <use style="fill:#008000;stroke:#008000;" x="311.745267" xlink:href="#m8f2fc8b8ae" y="295.488"/>
     <use style="fill:#008000;stroke:#008000;" x="311.941" xlink:href="#m8f2fc8b8ae" y="295.488"/>
     <use style="fill:#008000;stroke:#008000;" x="316.997416" xlink:href="#m8f2fc8b8ae" y="295.488"/>
     <use style="fill:#008000;stroke:#008000;" x="317.160526" xlink:href="#m8f2fc8b8ae" y="295.488"/>
     <use style="fill:#008000;stroke:#008000;" x="317.551991" xlink:href="#m8f2fc8b8ae" y="295.488"/>
     <use style="fill:#008000;stroke:#008000;" x="320.520596" xlink:href="#m8f2fc8b8ae" y="295.488"/>
     <use style="fill:#008000;stroke:#008000;" x="322.445297" xlink:href="#m8f2fc8b8ae" y="295.488"/>
     <use style="fill:#008000;stroke:#008000;" x="322.477919" xlink:href="#m8f2fc8b8ae" y="295.488"/>
     <use style="fill:#008000;stroke:#008000;" x="323.162982" xlink:href="#m8f2fc8b8ae" y="295.488"/>
     <use style="fill:#008000;stroke:#008000;" x="323.195604" xlink:href="#m8f2fc8b8ae" y="295.488"/>
     <use style="fill:#008000;stroke:#008000;" x="323.228226" xlink:href="#m8f2fc8b8ae" y="295.488"/>
     <use style="fill:#008000;stroke:#008000;" x="325.577013" xlink:href="#m8f2fc8b8ae" y="295.488"/>
     <use style="fill:#008000;stroke:#008000;" x="326.97976" xlink:href="#m8f2fc8b8ae" y="295.488"/>
     <use style="fill:#008000;stroke:#008000;" x="327.077626" xlink:href="#m8f2fc8b8ae" y="295.488"/>
     <use style="fill:#008000;stroke:#008000;" x="328.317264" xlink:href="#m8f2fc8b8ae" y="295.488"/>
     <use style="fill:#008000;stroke:#008000;" x="328.676106" xlink:href="#m8f2fc8b8ae" y="295.488"/>
     <use style="fill:#008000;stroke:#008000;" x="334.319719" xlink:href="#m8f2fc8b8ae" y="295.488"/>
     <use style="fill:#008000;stroke:#008000;" x="334.64594" xlink:href="#m8f2fc8b8ae" y="295.488"/>
     <use style="fill:#008000;stroke:#008000;" x="335.396247" xlink:href="#m8f2fc8b8ae" y="295.488"/>
     <use style="fill:#008000;stroke:#008000;" x="338.984671" xlink:href="#m8f2fc8b8ae" y="295.488"/>
     <use style="fill:#008000;stroke:#008000;" x="339.93071" xlink:href="#m8f2fc8b8ae" y="295.488"/>
     <use style="fill:#008000;stroke:#008000;" x="340.909372" xlink:href="#m8f2fc8b8ae" y="295.488"/>
     <use style="fill:#008000;stroke:#008000;" x="341.03986" xlink:href="#m8f2fc8b8ae" y="295.488"/>
     <use style="fill:#008000;stroke:#008000;" x="342.279497" xlink:href="#m8f2fc8b8ae" y="295.488"/>
     <use style="fill:#008000;stroke:#008000;" x="344.041087" xlink:href="#m8f2fc8b8ae" y="295.488"/>
     <use style="fill:#008000;stroke:#008000;" x="345.182859" xlink:href="#m8f2fc8b8ae" y="295.488"/>
     <use style="fill:#008000;stroke:#008000;" x="348.608173" xlink:href="#m8f2fc8b8ae" y="295.488"/>
     <use style="fill:#008000;stroke:#008000;" x="349.913055" xlink:href="#m8f2fc8b8ae" y="295.488"/>
     <use style="fill:#008000;stroke:#008000;" x="350.271897" xlink:href="#m8f2fc8b8ae" y="295.488"/>
     <use style="fill:#008000;stroke:#008000;" x="350.369763" xlink:href="#m8f2fc8b8ae" y="295.488"/>
     <use style="fill:#008000;stroke:#008000;" x="350.924338" xlink:href="#m8f2fc8b8ae" y="295.488"/>
     <use style="fill:#008000;stroke:#008000;" x="355.621912" xlink:href="#m8f2fc8b8ae" y="295.488"/>
     <use style="fill:#008000;stroke:#008000;" x="356.372219" xlink:href="#m8f2fc8b8ae" y="295.488"/>
     <use style="fill:#008000;stroke:#008000;" x="357.611856" xlink:href="#m8f2fc8b8ae" y="295.488"/>
     <use style="fill:#008000;stroke:#008000;" x="358.753628" xlink:href="#m8f2fc8b8ae" y="295.488"/>
     <use style="fill:#008000;stroke:#008000;" x="359.830155" xlink:href="#m8f2fc8b8ae" y="295.488"/>
     <use style="fill:#008000;stroke:#008000;" x="364.625595" xlink:href="#m8f2fc8b8ae" y="295.488"/>
     <use style="fill:#008000;stroke:#008000;" x="366.909138" xlink:href="#m8f2fc8b8ae" y="295.488"/>
     <use style="fill:#008000;stroke:#008000;" x="372.617995" xlink:href="#m8f2fc8b8ae" y="295.488"/>
     <use style="fill:#008000;stroke:#008000;" x="376.010687" xlink:href="#m8f2fc8b8ae" y="295.488"/>
     <use style="fill:#008000;stroke:#008000;" x="378.979293" xlink:href="#m8f2fc8b8ae" y="295.488"/>
     <use style="fill:#008000;stroke:#008000;" x="379.89271" xlink:href="#m8f2fc8b8ae" y="295.488"/>
     <use style="fill:#008000;stroke:#008000;" x="380.088442" xlink:href="#m8f2fc8b8ae" y="295.488"/>
     <use style="fill:#008000;stroke:#008000;" x="381.523812" xlink:href="#m8f2fc8b8ae" y="295.488"/>
     <use style="fill:#008000;stroke:#008000;" x="387.982976" xlink:href="#m8f2fc8b8ae" y="295.488"/>
     <use style="fill:#008000;stroke:#008000;" x="391.767132" xlink:href="#m8f2fc8b8ae" y="295.488"/>
     <use style="fill:#008000;stroke:#008000;" x="392.289085" xlink:href="#m8f2fc8b8ae" y="295.488"/>
     <use style="fill:#008000;stroke:#008000;" x="392.354329" xlink:href="#m8f2fc8b8ae" y="295.488"/>
     <use style="fill:#008000;stroke:#008000;" x="393.039392" xlink:href="#m8f2fc8b8ae" y="295.488"/>
     <use style="fill:#008000;stroke:#008000;" x="396.171108" xlink:href="#m8f2fc8b8ae" y="295.488"/>
     <use style="fill:#008000;stroke:#008000;" x="396.399462" xlink:href="#m8f2fc8b8ae" y="53.568"/>
     <use style="fill:#008000;stroke:#008000;" x="397.769588" xlink:href="#m8f2fc8b8ae" y="295.488"/>
     <use style="fill:#008000;stroke:#008000;" x="398.12843" xlink:href="#m8f2fc8b8ae" y="295.488"/>
     <use style="fill:#008000;stroke:#008000;" x="398.487273" xlink:href="#m8f2fc8b8ae" y="295.488"/>
    </g>
   </g>
   <g id="patch_3">
    <path d="M 57.6 307.584 
L 57.6 41.472 
" style="fill:none;stroke:#000000;stroke-linecap:square;stroke-linejoin:miter;stroke-width:0.8;"/>
   </g>
   <g id="patch_4">
    <path d="M 414.72 307.584 
L 414.72 41.472 
" style="fill:none;stroke:#000000;stroke-linecap:square;stroke-linejoin:miter;stroke-width:0.8;"/>
   </g>
   <g id="patch_5">
    <path d="M 57.6 307.584 
L 414.72 307.584 
" style="fill:none;stroke:#000000;stroke-linecap:square;stroke-linejoin:miter;stroke-width:0.8;"/>
   </g>
   <g id="patch_6">
    <path d="M 57.6 41.472 
L 414.72 41.472 
" style="fill:none;stroke:#000000;stroke-linecap:square;stroke-linejoin:miter;stroke-width:0.8;"/>
   </g>
  </g>
 </g>
 <defs>
  <clipPath id="pb653227e8c">
   <rect height="266.112" width="357.12" x="57.6" y="41.472"/>
  </clipPath>
 </defs>
</svg>
