<?xml version="1.0" encoding="utf-8" standalone="no"?>
<!DOCTYPE svg PUBLIC "-//W3C//DTD SVG 1.1//EN"
  "http://www.w3.org/Graphics/SVG/1.1/DTD/svg11.dtd">
<!-- Created with matplotlib (http://matplotlib.org/) -->
<svg height="345pt" version="1.1" viewBox="0 0 460 345" width="460pt" xmlns="http://www.w3.org/2000/svg" xmlns:xlink="http://www.w3.org/1999/xlink">
 <defs>
  <style type="text/css">
*{stroke-linecap:butt;stroke-linejoin:round;}
  </style>
 </defs>
 <g id="figure_1">
  <g id="patch_1">
   <path d="M 0 345.6 
L 460.8 345.6 
L 460.8 0 
L 0 0 
z
" style="fill:#ffffff;"/>
  </g>
  <g id="axes_1">
   <g id="patch_2">
    <path d="M 57.6 307.584 
L 414.72 307.584 
L 414.72 41.472 
L 57.6 41.472 
z
" style="fill:#ffffff;"/>
   </g>
   <g id="matplotlib.axis_1">
    <g id="xtick_1">
     <g id="line2d_1">
      <defs>
       <path d="M 0 0 
L 0 3.5 
" id="m428fa177b6" style="stroke:#000000;stroke-width:0.8;"/>
      </defs>
      <g>
       <use style="stroke:#000000;stroke-width:0.8;" x="72.166659" xlink:href="#m428fa177b6" y="307.584"/>
      </g>
     </g>
     <g id="text_1">
      <!-- 0 -->
      <defs>
       <path d="M 31.78125 66.40625 
Q 24.171875 66.40625 20.328125 58.90625 
Q 16.5 51.421875 16.5 36.375 
Q 16.5 21.390625 20.328125 13.890625 
Q 24.171875 6.390625 31.78125 6.390625 
Q 39.453125 6.390625 43.28125 13.890625 
Q 47.125 21.390625 47.125 36.375 
Q 47.125 51.421875 43.28125 58.90625 
Q 39.453125 66.40625 31.78125 66.40625 
z
M 31.78125 74.21875 
Q 44.046875 74.21875 50.515625 64.515625 
Q 56.984375 54.828125 56.984375 36.375 
Q 56.984375 17.96875 50.515625 8.265625 
Q 44.046875 -1.421875 31.78125 -1.421875 
Q 19.53125 -1.421875 13.0625 8.265625 
Q 6.59375 17.96875 6.59375 36.375 
Q 6.59375 54.828125 13.0625 64.515625 
Q 19.53125 74.21875 31.78125 74.21875 
z
" id="DejaVuSans-30"/>
      </defs>
      <g transform="translate(68.985409 322.182437)scale(0.1 -0.1)">
       <use xlink:href="#DejaVuSans-30"/>
      </g>
     </g>
    </g>
    <g id="xtick_2">
     <g id="line2d_2">
      <g>
       <use style="stroke:#000000;stroke-width:0.8;" x="137.502652" xlink:href="#m428fa177b6" y="307.584"/>
      </g>
     </g>
     <g id="text_2">
      <!-- 2000 -->
      <defs>
       <path d="M 19.1875 8.296875 
L 53.609375 8.296875 
L 53.609375 0 
L 7.328125 0 
L 7.328125 8.296875 
Q 12.9375 14.109375 22.625 23.890625 
Q 32.328125 33.6875 34.8125 36.53125 
Q 39.546875 41.84375 41.421875 45.53125 
Q 43.3125 49.21875 43.3125 52.78125 
Q 43.3125 58.59375 39.234375 62.25 
Q 35.15625 65.921875 28.609375 65.921875 
Q 23.96875 65.921875 18.8125 64.3125 
Q 13.671875 62.703125 7.8125 59.421875 
L 7.8125 69.390625 
Q 13.765625 71.78125 18.9375 73 
Q 24.125 74.21875 28.421875 74.21875 
Q 39.75 74.21875 46.484375 68.546875 
Q 53.21875 62.890625 53.21875 53.421875 
Q 53.21875 48.921875 51.53125 44.890625 
Q 49.859375 40.875 45.40625 35.40625 
Q 44.1875 33.984375 37.640625 27.21875 
Q 31.109375 20.453125 19.1875 8.296875 
z
" id="DejaVuSans-32"/>
      </defs>
      <g transform="translate(124.777652 322.182437)scale(0.1 -0.1)">
       <use xlink:href="#DejaVuSans-32"/>
       <use x="63.623047" xlink:href="#DejaVuSans-30"/>
       <use x="127.246094" xlink:href="#DejaVuSans-30"/>
       <use x="190.869141" xlink:href="#DejaVuSans-30"/>
      </g>
     </g>
    </g>
    <g id="xtick_3">
     <g id="line2d_3">
      <g>
       <use style="stroke:#000000;stroke-width:0.8;" x="202.838644" xlink:href="#m428fa177b6" y="307.584"/>
      </g>
     </g>
     <g id="text_3">
      <!-- 4000 -->
      <defs>
       <path d="M 37.796875 64.3125 
L 12.890625 25.390625 
L 37.796875 25.390625 
z
M 35.203125 72.90625 
L 47.609375 72.90625 
L 47.609375 25.390625 
L 58.015625 25.390625 
L 58.015625 17.1875 
L 47.609375 17.1875 
L 47.609375 0 
L 37.796875 0 
L 37.796875 17.1875 
L 4.890625 17.1875 
L 4.890625 26.703125 
z
" id="DejaVuSans-34"/>
      </defs>
      <g transform="translate(190.113644 322.182437)scale(0.1 -0.1)">
       <use xlink:href="#DejaVuSans-34"/>
       <use x="63.623047" xlink:href="#DejaVuSans-30"/>
       <use x="127.246094" xlink:href="#DejaVuSans-30"/>
       <use x="190.869141" xlink:href="#DejaVuSans-30"/>
      </g>
     </g>
    </g>
    <g id="xtick_4">
     <g id="line2d_4">
      <g>
       <use style="stroke:#000000;stroke-width:0.8;" x="268.174636" xlink:href="#m428fa177b6" y="307.584"/>
      </g>
     </g>
     <g id="text_4">
      <!-- 6000 -->
      <defs>
       <path d="M 33.015625 40.375 
Q 26.375 40.375 22.484375 35.828125 
Q 18.609375 31.296875 18.609375 23.390625 
Q 18.609375 15.53125 22.484375 10.953125 
Q 26.375 6.390625 33.015625 6.390625 
Q 39.65625 6.390625 43.53125 10.953125 
Q 47.40625 15.53125 47.40625 23.390625 
Q 47.40625 31.296875 43.53125 35.828125 
Q 39.65625 40.375 33.015625 40.375 
z
M 52.59375 71.296875 
L 52.59375 62.3125 
Q 48.875 64.0625 45.09375 64.984375 
Q 41.3125 65.921875 37.59375 65.921875 
Q 27.828125 65.921875 22.671875 59.328125 
Q 17.53125 52.734375 16.796875 39.40625 
Q 19.671875 43.65625 24.015625 45.921875 
Q 28.375 48.1875 33.59375 48.1875 
Q 44.578125 48.1875 50.953125 41.515625 
Q 57.328125 34.859375 57.328125 23.390625 
Q 57.328125 12.15625 50.6875 5.359375 
Q 44.046875 -1.421875 33.015625 -1.421875 
Q 20.359375 -1.421875 13.671875 8.265625 
Q 6.984375 17.96875 6.984375 36.375 
Q 6.984375 53.65625 15.1875 63.9375 
Q 23.390625 74.21875 37.203125 74.21875 
Q 40.921875 74.21875 44.703125 73.484375 
Q 48.484375 72.75 52.59375 71.296875 
z
" id="DejaVuSans-36"/>
      </defs>
      <g transform="translate(255.449636 322.182437)scale(0.1 -0.1)">
       <use xlink:href="#DejaVuSans-36"/>
       <use x="63.623047" xlink:href="#DejaVuSans-30"/>
       <use x="127.246094" xlink:href="#DejaVuSans-30"/>
       <use x="190.869141" xlink:href="#DejaVuSans-30"/>
      </g>
     </g>
    </g>
    <g id="xtick_5">
     <g id="line2d_5">
      <g>
       <use style="stroke:#000000;stroke-width:0.8;" x="333.510628" xlink:href="#m428fa177b6" y="307.584"/>
      </g>
     </g>
     <g id="text_5">
      <!-- 8000 -->
      <defs>
       <path d="M 31.78125 34.625 
Q 24.75 34.625 20.71875 30.859375 
Q 16.703125 27.09375 16.703125 20.515625 
Q 16.703125 13.921875 20.71875 10.15625 
Q 24.75 6.390625 31.78125 6.390625 
Q 38.8125 6.390625 42.859375 10.171875 
Q 46.921875 13.96875 46.921875 20.515625 
Q 46.921875 27.09375 42.890625 30.859375 
Q 38.875 34.625 31.78125 34.625 
z
M 21.921875 38.8125 
Q 15.578125 40.375 12.03125 44.71875 
Q 8.5 49.078125 8.5 55.328125 
Q 8.5 64.0625 14.71875 69.140625 
Q 20.953125 74.21875 31.78125 74.21875 
Q 42.671875 74.21875 48.875 69.140625 
Q 55.078125 64.0625 55.078125 55.328125 
Q 55.078125 49.078125 51.53125 44.71875 
Q 48 40.375 41.703125 38.8125 
Q 48.828125 37.15625 52.796875 32.3125 
Q 56.78125 27.484375 56.78125 20.515625 
Q 56.78125 9.90625 50.3125 4.234375 
Q 43.84375 -1.421875 31.78125 -1.421875 
Q 19.734375 -1.421875 13.25 4.234375 
Q 6.78125 9.90625 6.78125 20.515625 
Q 6.78125 27.484375 10.78125 32.3125 
Q 14.796875 37.15625 21.921875 38.8125 
z
M 18.3125 54.390625 
Q 18.3125 48.734375 21.84375 45.5625 
Q 25.390625 42.390625 31.78125 42.390625 
Q 38.140625 42.390625 41.71875 45.5625 
Q 45.3125 48.734375 45.3125 54.390625 
Q 45.3125 60.0625 41.71875 63.234375 
Q 38.140625 66.40625 31.78125 66.40625 
Q 25.390625 66.40625 21.84375 63.234375 
Q 18.3125 60.0625 18.3125 54.390625 
z
" id="DejaVuSans-38"/>
      </defs>
      <g transform="translate(320.785628 322.182437)scale(0.1 -0.1)">
       <use xlink:href="#DejaVuSans-38"/>
       <use x="63.623047" xlink:href="#DejaVuSans-30"/>
       <use x="127.246094" xlink:href="#DejaVuSans-30"/>
       <use x="190.869141" xlink:href="#DejaVuSans-30"/>
      </g>
     </g>
    </g>
    <g id="xtick_6">
     <g id="line2d_6">
      <g>
       <use style="stroke:#000000;stroke-width:0.8;" x="398.846621" xlink:href="#m428fa177b6" y="307.584"/>
      </g>
     </g>
     <g id="text_6">
      <!-- 10000 -->
      <defs>
       <path d="M 12.40625 8.296875 
L 28.515625 8.296875 
L 28.515625 63.921875 
L 10.984375 60.40625 
L 10.984375 69.390625 
L 28.421875 72.90625 
L 38.28125 72.90625 
L 38.28125 8.296875 
L 54.390625 8.296875 
L 54.390625 0 
L 12.40625 0 
z
" id="DejaVuSans-31"/>
      </defs>
      <g transform="translate(382.940371 322.182437)scale(0.1 -0.1)">
       <use xlink:href="#DejaVuSans-31"/>
       <use x="63.623047" xlink:href="#DejaVuSans-30"/>
       <use x="127.246094" xlink:href="#DejaVuSans-30"/>
       <use x="190.869141" xlink:href="#DejaVuSans-30"/>
       <use x="254.492188" xlink:href="#DejaVuSans-30"/>
      </g>
     </g>
    </g>
   </g>
   <g id="matplotlib.axis_2">
    <g id="ytick_1">
     <g id="line2d_7">
      <defs>
       <path d="M 0 0 
L -3.5 0 
" id="m8b900a2c94" style="stroke:#000000;stroke-width:0.8;"/>
      </defs>
      <g>
       <use style="stroke:#000000;stroke-width:0.8;" x="57.6" xlink:href="#m8b900a2c94" y="295.488"/>
      </g>
     </g>
     <g id="text_7">
      <!-- 1.0 -->
      <defs>
       <path d="M 10.6875 12.40625 
L 21 12.40625 
L 21 0 
L 10.6875 0 
z
" id="DejaVuSans-2e"/>
      </defs>
      <g transform="translate(34.696875 299.287219)scale(0.1 -0.1)">
       <use xlink:href="#DejaVuSans-31"/>
       <use x="63.623047" xlink:href="#DejaVuSans-2e"/>
       <use x="95.410156" xlink:href="#DejaVuSans-30"/>
      </g>
     </g>
    </g>
    <g id="ytick_2">
     <g id="line2d_8">
      <g>
       <use style="stroke:#000000;stroke-width:0.8;" x="57.6" xlink:href="#m8b900a2c94" y="247.104"/>
      </g>
     </g>
     <g id="text_8">
      <!-- 1.2 -->
      <g transform="translate(34.696875 250.903219)scale(0.1 -0.1)">
       <use xlink:href="#DejaVuSans-31"/>
       <use x="63.623047" xlink:href="#DejaVuSans-2e"/>
       <use x="95.410156" xlink:href="#DejaVuSans-32"/>
      </g>
     </g>
    </g>
    <g id="ytick_3">
     <g id="line2d_9">
      <g>
       <use style="stroke:#000000;stroke-width:0.8;" x="57.6" xlink:href="#m8b900a2c94" y="198.72"/>
      </g>
     </g>
     <g id="text_9">
      <!-- 1.4 -->
      <g transform="translate(34.696875 202.519219)scale(0.1 -0.1)">
       <use xlink:href="#DejaVuSans-31"/>
       <use x="63.623047" xlink:href="#DejaVuSans-2e"/>
       <use x="95.410156" xlink:href="#DejaVuSans-34"/>
      </g>
     </g>
    </g>
    <g id="ytick_4">
     <g id="line2d_10">
      <g>
       <use style="stroke:#000000;stroke-width:0.8;" x="57.6" xlink:href="#m8b900a2c94" y="150.336"/>
      </g>
     </g>
     <g id="text_10">
      <!-- 1.6 -->
      <g transform="translate(34.696875 154.135219)scale(0.1 -0.1)">
       <use xlink:href="#DejaVuSans-31"/>
       <use x="63.623047" xlink:href="#DejaVuSans-2e"/>
       <use x="95.410156" xlink:href="#DejaVuSans-36"/>
      </g>
     </g>
    </g>
    <g id="ytick_5">
     <g id="line2d_11">
      <g>
       <use style="stroke:#000000;stroke-width:0.8;" x="57.6" xlink:href="#m8b900a2c94" y="101.952"/>
      </g>
     </g>
     <g id="text_11">
      <!-- 1.8 -->
      <g transform="translate(34.696875 105.751219)scale(0.1 -0.1)">
       <use xlink:href="#DejaVuSans-31"/>
       <use x="63.623047" xlink:href="#DejaVuSans-2e"/>
       <use x="95.410156" xlink:href="#DejaVuSans-38"/>
      </g>
     </g>
    </g>
    <g id="ytick_6">
     <g id="line2d_12">
      <g>
       <use style="stroke:#000000;stroke-width:0.8;" x="57.6" xlink:href="#m8b900a2c94" y="53.568"/>
      </g>
     </g>
     <g id="text_12">
      <!-- 2.0 -->
      <g transform="translate(34.696875 57.367219)scale(0.1 -0.1)">
       <use xlink:href="#DejaVuSans-32"/>
       <use x="63.623047" xlink:href="#DejaVuSans-2e"/>
       <use x="95.410156" xlink:href="#DejaVuSans-30"/>
      </g>
     </g>
    </g>
   </g>
   <g id="line2d_13">
    <defs>
     <path d="M 0 3 
C 0.795609 3 1.55874 2.683901 2.12132 2.12132 
C 2.683901 1.55874 3 0.795609 3 0 
C 3 -0.795609 2.683901 -1.55874 2.12132 -2.12132 
C 1.55874 -2.683901 0.795609 -3 0 -3 
C -0.795609 -3 -1.55874 -2.683901 -2.12132 -2.12132 
C -2.683901 -1.55874 -3 -0.795609 -3 0 
C -3 0.795609 -2.683901 1.55874 -2.12132 2.12132 
C -1.55874 2.683901 -0.795609 3 0 3 
z
" id="mf6b7f68e00" style="stroke:#008000;"/>
    </defs>
    <g clip-path="url(#p3af5b67d76)">
     <use style="fill:#008000;stroke:#008000;" x="73.832727" xlink:href="#mf6b7f68e00" y="295.488"/>
     <use style="fill:#008000;stroke:#008000;" x="74.322747" xlink:href="#mf6b7f68e00" y="295.488"/>
     <use style="fill:#008000;stroke:#008000;" x="74.420751" xlink:href="#mf6b7f68e00" y="53.568"/>
     <use style="fill:#008000;stroke:#008000;" x="80.46433" xlink:href="#mf6b7f68e00" y="295.488"/>
     <use style="fill:#008000;stroke:#008000;" x="81.379034" xlink:href="#mf6b7f68e00" y="295.488"/>
     <use style="fill:#008000;stroke:#008000;" x="83.045102" xlink:href="#mf6b7f68e00" y="295.488"/>
     <use style="fill:#008000;stroke:#008000;" x="85.070518" xlink:href="#mf6b7f68e00" y="295.488"/>
     <use style="fill:#008000;stroke:#008000;" x="86.34457" xlink:href="#mf6b7f68e00" y="295.488"/>
     <use style="fill:#008000;stroke:#008000;" x="87.97797" xlink:href="#mf6b7f68e00" y="295.488"/>
     <use style="fill:#008000;stroke:#008000;" x="88.762002" xlink:href="#mf6b7f68e00" y="295.488"/>
     <use style="fill:#008000;stroke:#008000;" x="88.958009" xlink:href="#mf6b7f68e00" y="295.488"/>
     <use style="fill:#008000;stroke:#008000;" x="89.252021" xlink:href="#mf6b7f68e00" y="295.488"/>
     <use style="fill:#008000;stroke:#008000;" x="93.825541" xlink:href="#mf6b7f68e00" y="295.488"/>
     <use style="fill:#008000;stroke:#008000;" x="94.740245" xlink:href="#mf6b7f68e00" y="295.488"/>
     <use style="fill:#008000;stroke:#008000;" x="95.948961" xlink:href="#mf6b7f68e00" y="295.488"/>
     <use style="fill:#008000;stroke:#008000;" x="96.700325" xlink:href="#mf6b7f68e00" y="295.488"/>
     <use style="fill:#008000;stroke:#008000;" x="98.595068" xlink:href="#mf6b7f68e00" y="295.488"/>
     <use style="fill:#008000;stroke:#008000;" x="99.967124" xlink:href="#mf6b7f68e00" y="295.488"/>
     <use style="fill:#008000;stroke:#008000;" x="102.188548" xlink:href="#mf6b7f68e00" y="295.488"/>
     <use style="fill:#008000;stroke:#008000;" x="106.500723" xlink:href="#mf6b7f68e00" y="295.488"/>
     <use style="fill:#008000;stroke:#008000;" x="108.428135" xlink:href="#mf6b7f68e00" y="295.488"/>
     <use style="fill:#008000;stroke:#008000;" x="112.707643" xlink:href="#mf6b7f68e00" y="295.488"/>
     <use style="fill:#008000;stroke:#008000;" x="112.740311" xlink:href="#mf6b7f68e00" y="295.488"/>
     <use style="fill:#008000;stroke:#008000;" x="113.426339" xlink:href="#mf6b7f68e00" y="295.488"/>
     <use style="fill:#008000;stroke:#008000;" x="113.687683" xlink:href="#mf6b7f68e00" y="295.488"/>
     <use style="fill:#008000;stroke:#008000;" x="114.112366" xlink:href="#mf6b7f68e00" y="295.488"/>
     <use style="fill:#008000;stroke:#008000;" x="115.255746" xlink:href="#mf6b7f68e00" y="295.488"/>
     <use style="fill:#008000;stroke:#008000;" x="115.647762" xlink:href="#mf6b7f68e00" y="295.488"/>
     <use style="fill:#008000;stroke:#008000;" x="116.072446" xlink:href="#mf6b7f68e00" y="295.488"/>
     <use style="fill:#008000;stroke:#008000;" x="122.965393" xlink:href="#mf6b7f68e00" y="295.488"/>
     <use style="fill:#008000;stroke:#008000;" x="123.912765" xlink:href="#mf6b7f68e00" y="295.488"/>
     <use style="fill:#008000;stroke:#008000;" x="124.141441" xlink:href="#mf6b7f68e00" y="295.488"/>
     <use style="fill:#008000;stroke:#008000;" x="124.304781" xlink:href="#mf6b7f68e00" y="295.488"/>
     <use style="fill:#008000;stroke:#008000;" x="124.925473" xlink:href="#mf6b7f68e00" y="295.488"/>
     <use style="fill:#008000;stroke:#008000;" x="126.624209" xlink:href="#mf6b7f68e00" y="295.488"/>
     <use style="fill:#008000;stroke:#008000;" x="130.217689" xlink:href="#mf6b7f68e00" y="295.488"/>
     <use style="fill:#008000;stroke:#008000;" x="131.557076" xlink:href="#mf6b7f68e00" y="295.488"/>
     <use style="fill:#008000;stroke:#008000;" x="132.079764" xlink:href="#mf6b7f68e00" y="295.488"/>
     <use style="fill:#008000;stroke:#008000;" x="132.929132" xlink:href="#mf6b7f68e00" y="295.488"/>
     <use style="fill:#008000;stroke:#008000;" x="138.613364" xlink:href="#mf6b7f68e00" y="295.488"/>
     <use style="fill:#008000;stroke:#008000;" x="142.076171" xlink:href="#mf6b7f68e00" y="295.488"/>
     <use style="fill:#008000;stroke:#008000;" x="147.335719" xlink:href="#mf6b7f68e00" y="295.488"/>
     <use style="fill:#008000;stroke:#008000;" x="149.361134" xlink:href="#mf6b7f68e00" y="295.488"/>
     <use style="fill:#008000;stroke:#008000;" x="151.125206" xlink:href="#mf6b7f68e00" y="295.488"/>
     <use style="fill:#008000;stroke:#008000;" x="153.50997" xlink:href="#mf6b7f68e00" y="295.488"/>
     <use style="fill:#008000;stroke:#008000;" x="156.188745" xlink:href="#mf6b7f68e00" y="295.488"/>
     <use style="fill:#008000;stroke:#008000;" x="157.168785" xlink:href="#mf6b7f68e00" y="295.488"/>
     <use style="fill:#008000;stroke:#008000;" x="157.462797" xlink:href="#mf6b7f68e00" y="295.488"/>
     <use style="fill:#008000;stroke:#008000;" x="162.166989" xlink:href="#mf6b7f68e00" y="295.488"/>
     <use style="fill:#008000;stroke:#008000;" x="162.428333" xlink:href="#mf6b7f68e00" y="295.488"/>
     <use style="fill:#008000;stroke:#008000;" x="164.192405" xlink:href="#mf6b7f68e00" y="295.488"/>
     <use style="fill:#008000;stroke:#008000;" x="167.52454" xlink:href="#mf6b7f68e00" y="295.488"/>
     <use style="fill:#008000;stroke:#008000;" x="168.569916" xlink:href="#mf6b7f68e00" y="295.488"/>
     <use style="fill:#008000;stroke:#008000;" x="171.673376" xlink:href="#mf6b7f68e00" y="295.488"/>
     <use style="fill:#008000;stroke:#008000;" x="173.862131" xlink:href="#mf6b7f68e00" y="295.488"/>
     <use style="fill:#008000;stroke:#008000;" x="179.546363" xlink:href="#mf6b7f68e00" y="295.488"/>
     <use style="fill:#008000;stroke:#008000;" x="179.677035" xlink:href="#mf6b7f68e00" y="295.488"/>
     <use style="fill:#008000;stroke:#008000;" x="180.428399" xlink:href="#mf6b7f68e00" y="295.488"/>
     <use style="fill:#008000;stroke:#008000;" x="182.19247" xlink:href="#mf6b7f68e00" y="295.488"/>
     <use style="fill:#008000;stroke:#008000;" x="188.628066" xlink:href="#mf6b7f68e00" y="295.488"/>
     <use style="fill:#008000;stroke:#008000;" x="190.392137" xlink:href="#mf6b7f68e00" y="295.488"/>
     <use style="fill:#008000;stroke:#008000;" x="190.686149" xlink:href="#mf6b7f68e00" y="295.488"/>
     <use style="fill:#008000;stroke:#008000;" x="192.319549" xlink:href="#mf6b7f68e00" y="295.488"/>
     <use style="fill:#008000;stroke:#008000;" x="192.972909" xlink:href="#mf6b7f68e00" y="295.488"/>
     <use style="fill:#008000;stroke:#008000;" x="195.749689" xlink:href="#mf6b7f68e00" y="295.488"/>
     <use style="fill:#008000;stroke:#008000;" x="196.239709" xlink:href="#mf6b7f68e00" y="295.488"/>
     <use style="fill:#008000;stroke:#008000;" x="198.624472" xlink:href="#mf6b7f68e00" y="295.488"/>
     <use style="fill:#008000;stroke:#008000;" x="198.918484" xlink:href="#mf6b7f68e00" y="295.488"/>
     <use style="fill:#008000;stroke:#008000;" x="201.727932" xlink:href="#mf6b7f68e00" y="295.488"/>
     <use style="fill:#008000;stroke:#008000;" x="203.949356" xlink:href="#mf6b7f68e00" y="295.488"/>
     <use style="fill:#008000;stroke:#008000;" x="205.909436" xlink:href="#mf6b7f68e00" y="295.488"/>
     <use style="fill:#008000;stroke:#008000;" x="207.052815" xlink:href="#mf6b7f68e00" y="295.488"/>
     <use style="fill:#008000;stroke:#008000;" x="207.804179" xlink:href="#mf6b7f68e00" y="295.488"/>
     <use style="fill:#008000;stroke:#008000;" x="208.490207" xlink:href="#mf6b7f68e00" y="295.488"/>
     <use style="fill:#008000;stroke:#008000;" x="213.096395" xlink:href="#mf6b7f68e00" y="295.488"/>
     <use style="fill:#008000;stroke:#008000;" x="214.207107" xlink:href="#mf6b7f68e00" y="295.488"/>
     <use style="fill:#008000;stroke:#008000;" x="214.468451" xlink:href="#mf6b7f68e00" y="295.488"/>
     <use style="fill:#008000;stroke:#008000;" x="215.513826" xlink:href="#mf6b7f68e00" y="295.488"/>
     <use style="fill:#008000;stroke:#008000;" x="216.689874" xlink:href="#mf6b7f68e00" y="295.488"/>
     <use style="fill:#008000;stroke:#008000;" x="217.637246" xlink:href="#mf6b7f68e00" y="295.488"/>
     <use style="fill:#008000;stroke:#008000;" x="218.486614" xlink:href="#mf6b7f68e00" y="295.488"/>
     <use style="fill:#008000;stroke:#008000;" x="218.55195" xlink:href="#mf6b7f68e00" y="295.488"/>
     <use style="fill:#008000;stroke:#008000;" x="219.69533" xlink:href="#mf6b7f68e00" y="295.488"/>
     <use style="fill:#008000;stroke:#008000;" x="220.283354" xlink:href="#mf6b7f68e00" y="295.488"/>
     <use style="fill:#008000;stroke:#008000;" x="221.100054" xlink:href="#mf6b7f68e00" y="295.488"/>
     <use style="fill:#008000;stroke:#008000;" x="222.668118" xlink:href="#mf6b7f68e00" y="295.488"/>
     <use style="fill:#008000;stroke:#008000;" x="223.517486" xlink:href="#mf6b7f68e00" y="295.488"/>
     <use style="fill:#008000;stroke:#008000;" x="228.156341" xlink:href="#mf6b7f68e00" y="295.488"/>
     <use style="fill:#008000;stroke:#008000;" x="229.887745" xlink:href="#mf6b7f68e00" y="295.488"/>
     <use style="fill:#008000;stroke:#008000;" x="233.742568" xlink:href="#mf6b7f68e00" y="295.488"/>
     <use style="fill:#008000;stroke:#008000;" x="234.003912" xlink:href="#mf6b7f68e00" y="295.488"/>
     <use style="fill:#008000;stroke:#008000;" x="235.963992" xlink:href="#mf6b7f68e00" y="295.488"/>
     <use style="fill:#008000;stroke:#008000;" x="236.780692" xlink:href="#mf6b7f68e00" y="295.488"/>
     <use style="fill:#008000;stroke:#008000;" x="239.655476" xlink:href="#mf6b7f68e00" y="295.488"/>
     <use style="fill:#008000;stroke:#008000;" x="241.942235" xlink:href="#mf6b7f68e00" y="295.488"/>
     <use style="fill:#008000;stroke:#008000;" x="242.007571" xlink:href="#mf6b7f68e00" y="295.488"/>
     <use style="fill:#008000;stroke:#008000;" x="243.346959" xlink:href="#mf6b7f68e00" y="295.488"/>
     <use style="fill:#008000;stroke:#008000;" x="243.771643" xlink:href="#mf6b7f68e00" y="295.488"/>
     <use style="fill:#008000;stroke:#008000;" x="244.555675" xlink:href="#mf6b7f68e00" y="295.488"/>
     <use style="fill:#008000;stroke:#008000;" x="247.332455" xlink:href="#mf6b7f68e00" y="295.488"/>
     <use style="fill:#008000;stroke:#008000;" x="247.724471" xlink:href="#mf6b7f68e00" y="295.488"/>
     <use style="fill:#008000;stroke:#008000;" x="250.762594" xlink:href="#mf6b7f68e00" y="295.488"/>
     <use style="fill:#008000;stroke:#008000;" x="255.434118" xlink:href="#mf6b7f68e00" y="295.488"/>
     <use style="fill:#008000;stroke:#008000;" x="255.989474" xlink:href="#mf6b7f68e00" y="295.488"/>
     <use style="fill:#008000;stroke:#008000;" x="256.283486" xlink:href="#mf6b7f68e00" y="295.488"/>
     <use style="fill:#008000;stroke:#008000;" x="256.740838" xlink:href="#mf6b7f68e00" y="295.488"/>
     <use style="fill:#008000;stroke:#008000;" x="256.936846" xlink:href="#mf6b7f68e00" y="295.488"/>
     <use style="fill:#008000;stroke:#008000;" x="257.263525" xlink:href="#mf6b7f68e00" y="295.488"/>
     <use style="fill:#008000;stroke:#008000;" x="260.040305" xlink:href="#mf6b7f68e00" y="295.488"/>
     <use style="fill:#008000;stroke:#008000;" x="261.053013" xlink:href="#mf6b7f68e00" y="295.488"/>
     <use style="fill:#008000;stroke:#008000;" x="262.457737" xlink:href="#mf6b7f68e00" y="295.488"/>
     <use style="fill:#008000;stroke:#008000;" x="263.143765" xlink:href="#mf6b7f68e00" y="295.488"/>
     <use style="fill:#008000;stroke:#008000;" x="266.835248" xlink:href="#mf6b7f68e00" y="295.488"/>
     <use style="fill:#008000;stroke:#008000;" x="267.94596" xlink:href="#mf6b7f68e00" y="295.488"/>
     <use style="fill:#008000;stroke:#008000;" x="268.631988" xlink:href="#mf6b7f68e00" y="295.488"/>
     <use style="fill:#008000;stroke:#008000;" x="269.056672" xlink:href="#mf6b7f68e00" y="295.488"/>
     <use style="fill:#008000;stroke:#008000;" x="270.298056" xlink:href="#mf6b7f68e00" y="295.488"/>
     <use style="fill:#008000;stroke:#008000;" x="270.592068" xlink:href="#mf6b7f68e00" y="295.488"/>
     <use style="fill:#008000;stroke:#008000;" x="271.245428" xlink:href="#mf6b7f68e00" y="295.488"/>
     <use style="fill:#008000;stroke:#008000;" x="273.466852" xlink:href="#mf6b7f68e00" y="295.488"/>
     <use style="fill:#008000;stroke:#008000;" x="275.851615" xlink:href="#mf6b7f68e00" y="295.488"/>
     <use style="fill:#008000;stroke:#008000;" x="277.942367" xlink:href="#mf6b7f68e00" y="295.488"/>
     <use style="fill:#008000;stroke:#008000;" x="278.791735" xlink:href="#mf6b7f68e00" y="295.488"/>
     <use style="fill:#008000;stroke:#008000;" x="280.751815" xlink:href="#mf6b7f68e00" y="295.488"/>
     <use style="fill:#008000;stroke:#008000;" x="285.586678" xlink:href="#mf6b7f68e00" y="295.488"/>
     <use style="fill:#008000;stroke:#008000;" x="286.501382" xlink:href="#mf6b7f68e00" y="295.488"/>
     <use style="fill:#008000;stroke:#008000;" x="289.245494" xlink:href="#mf6b7f68e00" y="295.488"/>
     <use style="fill:#008000;stroke:#008000;" x="289.47417" xlink:href="#mf6b7f68e00" y="295.488"/>
     <use style="fill:#008000;stroke:#008000;" x="290.062194" xlink:href="#mf6b7f68e00" y="295.488"/>
     <use style="fill:#008000;stroke:#008000;" x="291.042233" xlink:href="#mf6b7f68e00" y="295.488"/>
     <use style="fill:#008000;stroke:#008000;" x="291.499585" xlink:href="#mf6b7f68e00" y="295.488"/>
     <use style="fill:#008000;stroke:#008000;" x="291.695593" xlink:href="#mf6b7f68e00" y="295.488"/>
     <use style="fill:#008000;stroke:#008000;" x="291.858933" xlink:href="#mf6b7f68e00" y="295.488"/>
     <use style="fill:#008000;stroke:#008000;" x="293.034981" xlink:href="#mf6b7f68e00" y="295.488"/>
     <use style="fill:#008000;stroke:#008000;" x="293.688341" xlink:href="#mf6b7f68e00" y="295.488"/>
     <use style="fill:#008000;stroke:#008000;" x="293.851681" xlink:href="#mf6b7f68e00" y="295.488"/>
     <use style="fill:#008000;stroke:#008000;" x="296.726465" xlink:href="#mf6b7f68e00" y="295.488"/>
     <use style="fill:#008000;stroke:#008000;" x="297.118481" xlink:href="#mf6b7f68e00" y="295.488"/>
     <use style="fill:#008000;stroke:#008000;" x="298.621209" xlink:href="#mf6b7f68e00" y="295.488"/>
     <use style="fill:#008000;stroke:#008000;" x="298.784549" xlink:href="#mf6b7f68e00" y="295.488"/>
     <use style="fill:#008000;stroke:#008000;" x="300.287276" xlink:href="#mf6b7f68e00" y="295.488"/>
     <use style="fill:#008000;stroke:#008000;" x="301.103976" xlink:href="#mf6b7f68e00" y="295.488"/>
     <use style="fill:#008000;stroke:#008000;" x="304.534116" xlink:href="#mf6b7f68e00" y="295.488"/>
     <use style="fill:#008000;stroke:#008000;" x="304.697456" xlink:href="#mf6b7f68e00" y="295.488"/>
     <use style="fill:#008000;stroke:#008000;" x="305.12214" xlink:href="#mf6b7f68e00" y="295.488"/>
     <use style="fill:#008000;stroke:#008000;" x="306.134848" xlink:href="#mf6b7f68e00" y="295.488"/>
     <use style="fill:#008000;stroke:#008000;" x="308.192931" xlink:href="#mf6b7f68e00" y="295.488"/>
     <use style="fill:#008000;stroke:#008000;" x="308.290935" xlink:href="#mf6b7f68e00" y="295.488"/>
     <use style="fill:#008000;stroke:#008000;" x="309.826331" xlink:href="#mf6b7f68e00" y="295.488"/>
     <use style="fill:#008000;stroke:#008000;" x="314.334515" xlink:href="#mf6b7f68e00" y="295.488"/>
     <use style="fill:#008000;stroke:#008000;" x="314.955207" xlink:href="#mf6b7f68e00" y="295.488"/>
     <use style="fill:#008000;stroke:#008000;" x="317.633982" xlink:href="#mf6b7f68e00" y="295.488"/>
     <use style="fill:#008000;stroke:#008000;" x="318.091334" xlink:href="#mf6b7f68e00" y="295.488"/>
     <use style="fill:#008000;stroke:#008000;" x="325.114953" xlink:href="#mf6b7f68e00" y="295.488"/>
     <use style="fill:#008000;stroke:#008000;" x="326.977029" xlink:href="#mf6b7f68e00" y="295.488"/>
     <use style="fill:#008000;stroke:#008000;" x="327.075033" xlink:href="#mf6b7f68e00" y="295.488"/>
     <use style="fill:#008000;stroke:#008000;" x="327.369045" xlink:href="#mf6b7f68e00" y="295.488"/>
     <use style="fill:#008000;stroke:#008000;" x="327.467049" xlink:href="#mf6b7f68e00" y="295.488"/>
     <use style="fill:#008000;stroke:#008000;" x="330.145825" xlink:href="#mf6b7f68e00" y="295.488"/>
     <use style="fill:#008000;stroke:#008000;" x="330.243829" xlink:href="#mf6b7f68e00" y="295.488"/>
     <use style="fill:#008000;stroke:#008000;" x="334.980688" xlink:href="#mf6b7f68e00" y="295.488"/>
     <use style="fill:#008000;stroke:#008000;" x="335.372704" xlink:href="#mf6b7f68e00" y="295.488"/>
     <use style="fill:#008000;stroke:#008000;" x="336.320076" xlink:href="#mf6b7f68e00" y="53.568"/>
     <use style="fill:#008000;stroke:#008000;" x="336.58142" xlink:href="#mf6b7f68e00" y="295.488"/>
     <use style="fill:#008000;stroke:#008000;" x="338.70484" xlink:href="#mf6b7f68e00" y="295.488"/>
     <use style="fill:#008000;stroke:#008000;" x="342.494327" xlink:href="#mf6b7f68e00" y="295.488"/>
     <use style="fill:#008000;stroke:#008000;" x="344.487075" xlink:href="#mf6b7f68e00" y="295.488"/>
     <use style="fill:#008000;stroke:#008000;" x="344.617747" xlink:href="#mf6b7f68e00" y="295.488"/>
     <use style="fill:#008000;stroke:#008000;" x="346.610495" xlink:href="#mf6b7f68e00" y="295.488"/>
     <use style="fill:#008000;stroke:#008000;" x="347.296523" xlink:href="#mf6b7f68e00" y="295.488"/>
     <use style="fill:#008000;stroke:#008000;" x="348.407235" xlink:href="#mf6b7f68e00" y="295.488"/>
     <use style="fill:#008000;stroke:#008000;" x="348.897255" xlink:href="#mf6b7f68e00" y="295.488"/>
     <use style="fill:#008000;stroke:#008000;" x="349.321939" xlink:href="#mf6b7f68e00" y="295.488"/>
     <use style="fill:#008000;stroke:#008000;" x="353.144094" xlink:href="#mf6b7f68e00" y="295.488"/>
     <use style="fill:#008000;stroke:#008000;" x="356.80291" xlink:href="#mf6b7f68e00" y="295.488"/>
     <use style="fill:#008000;stroke:#008000;" x="357.586942" xlink:href="#mf6b7f68e00" y="295.488"/>
     <use style="fill:#008000;stroke:#008000;" x="359.187673" xlink:href="#mf6b7f68e00" y="53.568"/>
     <use style="fill:#008000;stroke:#008000;" x="359.939037" xlink:href="#mf6b7f68e00" y="295.488"/>
     <use style="fill:#008000;stroke:#008000;" x="367.910028" xlink:href="#mf6b7f68e00" y="295.488"/>
     <use style="fill:#008000;stroke:#008000;" x="370.229456" xlink:href="#mf6b7f68e00" y="295.488"/>
     <use style="fill:#008000;stroke:#008000;" x="371.503508" xlink:href="#mf6b7f68e00" y="295.488"/>
     <use style="fill:#008000;stroke:#008000;" x="373.724932" xlink:href="#mf6b7f68e00" y="295.488"/>
     <use style="fill:#008000;stroke:#008000;" x="375.554339" xlink:href="#mf6b7f68e00" y="295.488"/>
     <use style="fill:#008000;stroke:#008000;" x="376.697719" xlink:href="#mf6b7f68e00" y="295.488"/>
     <use style="fill:#008000;stroke:#008000;" x="376.763055" xlink:href="#mf6b7f68e00" y="295.488"/>
     <use style="fill:#008000;stroke:#008000;" x="378.461791" xlink:href="#mf6b7f68e00" y="295.488"/>
     <use style="fill:#008000;stroke:#008000;" x="381.009895" xlink:href="#mf6b7f68e00" y="295.488"/>
     <use style="fill:#008000;stroke:#008000;" x="382.610627" xlink:href="#mf6b7f68e00" y="295.488"/>
     <use style="fill:#008000;stroke:#008000;" x="383.329323" xlink:href="#mf6b7f68e00" y="295.488"/>
     <use style="fill:#008000;stroke:#008000;" x="388.327526" xlink:href="#mf6b7f68e00" y="295.488"/>
     <use style="fill:#008000;stroke:#008000;" x="390.810294" xlink:href="#mf6b7f68e00" y="295.488"/>
     <use style="fill:#008000;stroke:#008000;" x="391.69233" xlink:href="#mf6b7f68e00" y="295.488"/>
     <use style="fill:#008000;stroke:#008000;" x="393.064385" xlink:href="#mf6b7f68e00" y="295.488"/>
     <use style="fill:#008000;stroke:#008000;" x="393.587073" xlink:href="#mf6b7f68e00" y="295.488"/>
     <use style="fill:#008000;stroke:#008000;" x="393.913753" xlink:href="#mf6b7f68e00" y="295.488"/>
     <use style="fill:#008000;stroke:#008000;" x="397.409229" xlink:href="#mf6b7f68e00" y="295.488"/>
     <use style="fill:#008000;stroke:#008000;" x="398.487273" xlink:href="#mf6b7f68e00" y="295.488"/>
    </g>
   </g>
   <g id="patch_3">
    <path d="M 57.6 307.584 
L 57.6 41.472 
" style="fill:none;stroke:#000000;stroke-linecap:square;stroke-linejoin:miter;stroke-width:0.8;"/>
   </g>
   <g id="patch_4">
    <path d="M 414.72 307.584 
L 414.72 41.472 
" style="fill:none;stroke:#000000;stroke-linecap:square;stroke-linejoin:miter;stroke-width:0.8;"/>
   </g>
   <g id="patch_5">
    <path d="M 57.6 307.584 
L 414.72 307.584 
" style="fill:none;stroke:#000000;stroke-linecap:square;stroke-linejoin:miter;stroke-width:0.8;"/>
   </g>
   <g id="patch_6">
    <path d="M 57.6 41.472 
L 414.72 41.472 
" style="fill:none;stroke:#000000;stroke-linecap:square;stroke-linejoin:miter;stroke-width:0.8;"/>
   </g>
  </g>
 </g>
 <defs>
  <clipPath id="p3af5b67d76">
   <rect height="266.112" width="357.12" x="57.6" y="41.472"/>
  </clipPath>
 </defs>
</svg>
