<?xml version="1.0" encoding="utf-8" standalone="no"?>
<!DOCTYPE svg PUBLIC "-//W3C//DTD SVG 1.1//EN"
  "http://www.w3.org/Graphics/SVG/1.1/DTD/svg11.dtd">
<!-- Created with matplotlib (http://matplotlib.org/) -->
<svg height="345pt" version="1.1" viewBox="0 0 460 345" width="460pt" xmlns="http://www.w3.org/2000/svg" xmlns:xlink="http://www.w3.org/1999/xlink">
 <defs>
  <style type="text/css">
*{stroke-linecap:butt;stroke-linejoin:round;}
  </style>
 </defs>
 <g id="figure_1">
  <g id="patch_1">
   <path d="M 0 345.6 
L 460.8 345.6 
L 460.8 0 
L 0 0 
z
" style="fill:#ffffff;"/>
  </g>
  <g id="axes_1">
   <g id="patch_2">
    <path d="M 57.6 307.584 
L 414.72 307.584 
L 414.72 41.472 
L 57.6 41.472 
z
" style="fill:#ffffff;"/>
   </g>
   <g id="PathCollection_1">
    <defs>
     <path d="M -0.707107 0 
L 0.707107 0 
M 0 0.707107 
L 0 -0.707107 
" id="m46fdb5cec5" style="stroke:#008000;stroke-width:1.5;"/>
    </defs>
    <g clip-path="url(#p8e3cbdf75f)">
     <use style="fill:#008000;stroke:#008000;stroke-width:1.5;" x="74.353637" xlink:href="#m46fdb5cec5" y="295.233898"/>
     <use style="fill:#008000;stroke:#008000;stroke-width:1.5;" x="76.323831" xlink:href="#m46fdb5cec5" y="295.233898"/>
     <use style="fill:#008000;stroke:#008000;stroke-width:1.5;" x="76.858121" xlink:href="#m46fdb5cec5" y="295.233898"/>
     <use style="fill:#008000;stroke:#008000;stroke-width:1.5;" x="77.59277" xlink:href="#m46fdb5cec5" y="295.233898"/>
     <use style="fill:#008000;stroke:#008000;stroke-width:1.5;" x="77.626163" xlink:href="#m46fdb5cec5" y="295.233898"/>
     <use style="fill:#008000;stroke:#008000;stroke-width:1.5;" x="80.631544" xlink:href="#m46fdb5cec5" y="295.233898"/>
     <use style="fill:#008000;stroke:#008000;stroke-width:1.5;" x="84.33818" xlink:href="#m46fdb5cec5" y="295.233898"/>
     <use style="fill:#008000;stroke:#008000;stroke-width:1.5;" x="85.173008" xlink:href="#m46fdb5cec5" y="295.233898"/>
     <use style="fill:#008000;stroke:#008000;stroke-width:1.5;" x="85.874264" xlink:href="#m46fdb5cec5" y="295.233898"/>
     <use style="fill:#008000;stroke:#008000;stroke-width:1.5;" x="87.043023" xlink:href="#m46fdb5cec5" y="295.233898"/>
     <use style="fill:#008000;stroke:#008000;stroke-width:1.5;" x="89.814652" xlink:href="#m46fdb5cec5" y="295.233898"/>
     <use style="fill:#008000;stroke:#008000;stroke-width:1.5;" x="91.050197" xlink:href="#m46fdb5cec5" y="174.528"/>
     <use style="fill:#008000;stroke:#008000;stroke-width:1.5;" x="92.25235" xlink:href="#m46fdb5cec5" y="295.233898"/>
     <use style="fill:#008000;stroke:#008000;stroke-width:1.5;" x="94.623261" xlink:href="#m46fdb5cec5" y="295.233898"/>
     <use style="fill:#008000;stroke:#008000;stroke-width:1.5;" x="94.656654" xlink:href="#m46fdb5cec5" y="295.233898"/>
     <use style="fill:#008000;stroke:#008000;stroke-width:1.5;" x="95.458089" xlink:href="#m46fdb5cec5" y="295.233898"/>
     <use style="fill:#008000;stroke:#008000;stroke-width:1.5;" x="97.261318" xlink:href="#m46fdb5cec5" y="295.233898"/>
     <use style="fill:#008000;stroke:#008000;stroke-width:1.5;" x="97.561856" xlink:href="#m46fdb5cec5" y="295.233898"/>
     <use style="fill:#008000;stroke:#008000;stroke-width:1.5;" x="98.229718" xlink:href="#m46fdb5cec5" y="295.233898"/>
     <use style="fill:#008000;stroke:#008000;stroke-width:1.5;" x="102.069927" xlink:href="#m46fdb5cec5" y="295.233898"/>
     <use style="fill:#008000;stroke:#008000;stroke-width:1.5;" x="102.771182" xlink:href="#m46fdb5cec5" y="295.233898"/>
     <use style="fill:#008000;stroke:#008000;stroke-width:1.5;" x="103.672797" xlink:href="#m46fdb5cec5" y="295.233898"/>
     <use style="fill:#008000;stroke:#008000;stroke-width:1.5;" x="106.978715" xlink:href="#m46fdb5cec5" y="295.233898"/>
     <use style="fill:#008000;stroke:#008000;stroke-width:1.5;" x="107.312647" xlink:href="#m46fdb5cec5" y="295.233898"/>
     <use style="fill:#008000;stroke:#008000;stroke-width:1.5;" x="108.815337" xlink:href="#m46fdb5cec5" y="295.233898"/>
     <use style="fill:#008000;stroke:#008000;stroke-width:1.5;" x="110.651959" xlink:href="#m46fdb5cec5" y="295.233898"/>
     <use style="fill:#008000;stroke:#008000;stroke-width:1.5;" x="112.05447" xlink:href="#m46fdb5cec5" y="295.233898"/>
     <use style="fill:#008000;stroke:#008000;stroke-width:1.5;" x="119.400956" xlink:href="#m46fdb5cec5" y="53.822102"/>
     <use style="fill:#008000;stroke:#008000;stroke-width:1.5;" x="122.940627" xlink:href="#m46fdb5cec5" y="295.233898"/>
     <use style="fill:#008000;stroke:#008000;stroke-width:1.5;" x="123.307951" xlink:href="#m46fdb5cec5" y="295.233898"/>
     <use style="fill:#008000;stroke:#008000;stroke-width:1.5;" x="123.975813" xlink:href="#m46fdb5cec5" y="295.233898"/>
     <use style="fill:#008000;stroke:#008000;stroke-width:1.5;" x="124.510103" xlink:href="#m46fdb5cec5" y="295.233898"/>
     <use style="fill:#008000;stroke:#008000;stroke-width:1.5;" x="125.445111" xlink:href="#m46fdb5cec5" y="295.233898"/>
     <use style="fill:#008000;stroke:#008000;stroke-width:1.5;" x="130.554258" xlink:href="#m46fdb5cec5" y="295.233898"/>
     <use style="fill:#008000;stroke:#008000;stroke-width:1.5;" x="132.457666" xlink:href="#m46fdb5cec5" y="295.233898"/>
     <use style="fill:#008000;stroke:#008000;stroke-width:1.5;" x="134.661612" xlink:href="#m46fdb5cec5" y="295.233898"/>
     <use style="fill:#008000;stroke:#008000;stroke-width:1.5;" x="137.967531" xlink:href="#m46fdb5cec5" y="295.233898"/>
     <use style="fill:#008000;stroke:#008000;stroke-width:1.5;" x="140.472015" xlink:href="#m46fdb5cec5" y="295.233898"/>
     <use style="fill:#008000;stroke:#008000;stroke-width:1.5;" x="149.120833" xlink:href="#m46fdb5cec5" y="295.233898"/>
     <use style="fill:#008000;stroke:#008000;stroke-width:1.5;" x="149.454764" xlink:href="#m46fdb5cec5" y="295.233898"/>
     <use style="fill:#008000;stroke:#008000;stroke-width:1.5;" x="149.922268" xlink:href="#m46fdb5cec5" y="295.233898"/>
     <use style="fill:#008000;stroke:#008000;stroke-width:1.5;" x="153.662297" xlink:href="#m46fdb5cec5" y="295.233898"/>
     <use style="fill:#008000;stroke:#008000;stroke-width:1.5;" x="155.29856" xlink:href="#m46fdb5cec5" y="295.233898"/>
     <use style="fill:#008000;stroke:#008000;stroke-width:1.5;" x="156.233567" xlink:href="#m46fdb5cec5" y="295.233898"/>
     <use style="fill:#008000;stroke:#008000;stroke-width:1.5;" x="159.272341" xlink:href="#m46fdb5cec5" y="295.233898"/>
     <use style="fill:#008000;stroke:#008000;stroke-width:1.5;" x="162.377901" xlink:href="#m46fdb5cec5" y="295.233898"/>
     <use style="fill:#008000;stroke:#008000;stroke-width:1.5;" x="162.511474" xlink:href="#m46fdb5cec5" y="295.233898"/>
     <use style="fill:#008000;stroke:#008000;stroke-width:1.5;" x="164.515061" xlink:href="#m46fdb5cec5" y="295.233898"/>
     <use style="fill:#008000;stroke:#008000;stroke-width:1.5;" x="164.71542" xlink:href="#m46fdb5cec5" y="295.233898"/>
     <use style="fill:#008000;stroke:#008000;stroke-width:1.5;" x="165.349889" xlink:href="#m46fdb5cec5" y="295.233898"/>
     <use style="fill:#008000;stroke:#008000;stroke-width:1.5;" x="169.724388" xlink:href="#m46fdb5cec5" y="295.233898"/>
     <use style="fill:#008000;stroke:#008000;stroke-width:1.5;" x="173.297452" xlink:href="#m46fdb5cec5" y="295.233898"/>
     <use style="fill:#008000;stroke:#008000;stroke-width:1.5;" x="176.469798" xlink:href="#m46fdb5cec5" y="295.233898"/>
     <use style="fill:#008000;stroke:#008000;stroke-width:1.5;" x="178.707137" xlink:href="#m46fdb5cec5" y="295.233898"/>
     <use style="fill:#008000;stroke:#008000;stroke-width:1.5;" x="178.907496" xlink:href="#m46fdb5cec5" y="295.233898"/>
     <use style="fill:#008000;stroke:#008000;stroke-width:1.5;" x="179.208034" xlink:href="#m46fdb5cec5" y="295.233898"/>
     <use style="fill:#008000;stroke:#008000;stroke-width:1.5;" x="180.977869" xlink:href="#m46fdb5cec5" y="295.233898"/>
     <use style="fill:#008000;stroke:#008000;stroke-width:1.5;" x="181.512159" xlink:href="#m46fdb5cec5" y="295.233898"/>
     <use style="fill:#008000;stroke:#008000;stroke-width:1.5;" x="181.679125" xlink:href="#m46fdb5cec5" y="295.233898"/>
     <use style="fill:#008000;stroke:#008000;stroke-width:1.5;" x="181.812697" xlink:href="#m46fdb5cec5" y="295.233898"/>
     <use style="fill:#008000;stroke:#008000;stroke-width:1.5;" x="185.252189" xlink:href="#m46fdb5cec5" y="295.233898"/>
     <use style="fill:#008000;stroke:#008000;stroke-width:1.5;" x="186.621307" xlink:href="#m46fdb5cec5" y="295.233898"/>
     <use style="fill:#008000;stroke:#008000;stroke-width:1.5;" x="186.754879" xlink:href="#m46fdb5cec5" y="295.233898"/>
     <use style="fill:#008000;stroke:#008000;stroke-width:1.5;" x="187.656493" xlink:href="#m46fdb5cec5" y="295.233898"/>
     <use style="fill:#008000;stroke:#008000;stroke-width:1.5;" x="189.593294" xlink:href="#m46fdb5cec5" y="295.233898"/>
     <use style="fill:#008000;stroke:#008000;stroke-width:1.5;" x="193.066179" xlink:href="#m46fdb5cec5" y="295.233898"/>
     <use style="fill:#008000;stroke:#008000;stroke-width:1.5;" x="193.901007" xlink:href="#m46fdb5cec5" y="295.233898"/>
     <use style="fill:#008000;stroke:#008000;stroke-width:1.5;" x="195.169945" xlink:href="#m46fdb5cec5" y="295.233898"/>
     <use style="fill:#008000;stroke:#008000;stroke-width:1.5;" x="195.370304" xlink:href="#m46fdb5cec5" y="295.233898"/>
     <use style="fill:#008000;stroke:#008000;stroke-width:1.5;" x="195.503876" xlink:href="#m46fdb5cec5" y="295.233898"/>
     <use style="fill:#008000;stroke:#008000;stroke-width:1.5;" x="195.670842" xlink:href="#m46fdb5cec5" y="295.233898"/>
     <use style="fill:#008000;stroke:#008000;stroke-width:1.5;" x="196.104953" xlink:href="#m46fdb5cec5" y="295.233898"/>
     <use style="fill:#008000;stroke:#008000;stroke-width:1.5;" x="198.075147" xlink:href="#m46fdb5cec5" y="295.233898"/>
     <use style="fill:#008000;stroke:#008000;stroke-width:1.5;" x="199.644623" xlink:href="#m46fdb5cec5" y="295.233898"/>
     <use style="fill:#008000;stroke:#008000;stroke-width:1.5;" x="201.447852" xlink:href="#m46fdb5cec5" y="295.233898"/>
     <use style="fill:#008000;stroke:#008000;stroke-width:1.5;" x="201.648211" xlink:href="#m46fdb5cec5" y="295.233898"/>
     <use style="fill:#008000;stroke:#008000;stroke-width:1.5;" x="203.518225" xlink:href="#m46fdb5cec5" y="295.233898"/>
     <use style="fill:#008000;stroke:#008000;stroke-width:1.5;" x="204.453233" xlink:href="#m46fdb5cec5" y="295.233898"/>
     <use style="fill:#008000;stroke:#008000;stroke-width:1.5;" x="206.924323" xlink:href="#m46fdb5cec5" y="295.233898"/>
     <use style="fill:#008000;stroke:#008000;stroke-width:1.5;" x="208.660766" xlink:href="#m46fdb5cec5" y="295.233898"/>
     <use style="fill:#008000;stroke:#008000;stroke-width:1.5;" x="209.362021" xlink:href="#m46fdb5cec5" y="295.233898"/>
     <use style="fill:#008000;stroke:#008000;stroke-width:1.5;" x="210.196849" xlink:href="#m46fdb5cec5" y="295.233898"/>
     <use style="fill:#008000;stroke:#008000;stroke-width:1.5;" x="211.098463" xlink:href="#m46fdb5cec5" y="295.233898"/>
     <use style="fill:#008000;stroke:#008000;stroke-width:1.5;" x="211.532574" xlink:href="#m46fdb5cec5" y="295.233898"/>
     <use style="fill:#008000;stroke:#008000;stroke-width:1.5;" x="213.536161" xlink:href="#m46fdb5cec5" y="295.233898"/>
     <use style="fill:#008000;stroke:#008000;stroke-width:1.5;" x="214.170631" xlink:href="#m46fdb5cec5" y="295.233898"/>
     <use style="fill:#008000;stroke:#008000;stroke-width:1.5;" x="215.23921" xlink:href="#m46fdb5cec5" y="295.233898"/>
     <use style="fill:#008000;stroke:#008000;stroke-width:1.5;" x="218.244591" xlink:href="#m46fdb5cec5" y="295.233898"/>
     <use style="fill:#008000;stroke:#008000;stroke-width:1.5;" x="220.815861" xlink:href="#m46fdb5cec5" y="295.233898"/>
     <use style="fill:#008000;stroke:#008000;stroke-width:1.5;" x="222.919628" xlink:href="#m46fdb5cec5" y="295.233898"/>
     <use style="fill:#008000;stroke:#008000;stroke-width:1.5;" x="225.257146" xlink:href="#m46fdb5cec5" y="295.233898"/>
     <use style="fill:#008000;stroke:#008000;stroke-width:1.5;" x="225.858222" xlink:href="#m46fdb5cec5" y="295.233898"/>
     <use style="fill:#008000;stroke:#008000;stroke-width:1.5;" x="227.795023" xlink:href="#m46fdb5cec5" y="295.233898"/>
     <use style="fill:#008000;stroke:#008000;stroke-width:1.5;" x="229.431286" xlink:href="#m46fdb5cec5" y="295.233898"/>
     <use style="fill:#008000;stroke:#008000;stroke-width:1.5;" x="229.598252" xlink:href="#m46fdb5cec5" y="295.233898"/>
     <use style="fill:#008000;stroke:#008000;stroke-width:1.5;" x="231.601839" xlink:href="#m46fdb5cec5" y="295.233898"/>
     <use style="fill:#008000;stroke:#008000;stroke-width:1.5;" x="233.037743" xlink:href="#m46fdb5cec5" y="295.233898"/>
     <use style="fill:#008000;stroke:#008000;stroke-width:1.5;" x="233.53864" xlink:href="#m46fdb5cec5" y="295.233898"/>
     <use style="fill:#008000;stroke:#008000;stroke-width:1.5;" x="234.106323" xlink:href="#m46fdb5cec5" y="295.233898"/>
     <use style="fill:#008000;stroke:#008000;stroke-width:1.5;" x="235.174903" xlink:href="#m46fdb5cec5" y="295.233898"/>
     <use style="fill:#008000;stroke:#008000;stroke-width:1.5;" x="235.542227" xlink:href="#m46fdb5cec5" y="295.233898"/>
     <use style="fill:#008000;stroke:#008000;stroke-width:1.5;" x="236.21009" xlink:href="#m46fdb5cec5" y="295.233898"/>
     <use style="fill:#008000;stroke:#008000;stroke-width:1.5;" x="237.512421" xlink:href="#m46fdb5cec5" y="295.233898"/>
     <use style="fill:#008000;stroke:#008000;stroke-width:1.5;" x="238.78136" xlink:href="#m46fdb5cec5" y="295.233898"/>
     <use style="fill:#008000;stroke:#008000;stroke-width:1.5;" x="239.84994" xlink:href="#m46fdb5cec5" y="295.233898"/>
     <use style="fill:#008000;stroke:#008000;stroke-width:1.5;" x="240.050298" xlink:href="#m46fdb5cec5" y="295.233898"/>
     <use style="fill:#008000;stroke:#008000;stroke-width:1.5;" x="240.117085" xlink:href="#m46fdb5cec5" y="295.233898"/>
     <use style="fill:#008000;stroke:#008000;stroke-width:1.5;" x="240.91852" xlink:href="#m46fdb5cec5" y="295.233898"/>
     <use style="fill:#008000;stroke:#008000;stroke-width:1.5;" x="241.519596" xlink:href="#m46fdb5cec5" y="295.233898"/>
     <use style="fill:#008000;stroke:#008000;stroke-width:1.5;" x="243.155859" xlink:href="#m46fdb5cec5" y="295.233898"/>
     <use style="fill:#008000;stroke:#008000;stroke-width:1.5;" x="246.094453" xlink:href="#m46fdb5cec5" y="295.233898"/>
     <use style="fill:#008000;stroke:#008000;stroke-width:1.5;" x="246.394991" xlink:href="#m46fdb5cec5" y="295.233898"/>
     <use style="fill:#008000;stroke:#008000;stroke-width:1.5;" x="246.461778" xlink:href="#m46fdb5cec5" y="295.233898"/>
     <use style="fill:#008000;stroke:#008000;stroke-width:1.5;" x="246.929281" xlink:href="#m46fdb5cec5" y="295.233898"/>
     <use style="fill:#008000;stroke:#008000;stroke-width:1.5;" x="249.300193" xlink:href="#m46fdb5cec5" y="295.233898"/>
     <use style="fill:#008000;stroke:#008000;stroke-width:1.5;" x="252.940043" xlink:href="#m46fdb5cec5" y="295.233898"/>
     <use style="fill:#008000;stroke:#008000;stroke-width:1.5;" x="254.542913" xlink:href="#m46fdb5cec5" y="295.233898"/>
     <use style="fill:#008000;stroke:#008000;stroke-width:1.5;" x="259.351522" xlink:href="#m46fdb5cec5" y="295.233898"/>
     <use style="fill:#008000;stroke:#008000;stroke-width:1.5;" x="259.418308" xlink:href="#m46fdb5cec5" y="295.233898"/>
     <use style="fill:#008000;stroke:#008000;stroke-width:1.5;" x="261.755826" xlink:href="#m46fdb5cec5" y="295.233898"/>
     <use style="fill:#008000;stroke:#008000;stroke-width:1.5;" x="263.325303" xlink:href="#m46fdb5cec5" y="295.233898"/>
     <use style="fill:#008000;stroke:#008000;stroke-width:1.5;" x="264.093345" xlink:href="#m46fdb5cec5" y="295.233898"/>
     <use style="fill:#008000;stroke:#008000;stroke-width:1.5;" x="267.900161" xlink:href="#m46fdb5cec5" y="295.233898"/>
     <use style="fill:#008000;stroke:#008000;stroke-width:1.5;" x="269.269278" xlink:href="#m46fdb5cec5" y="295.233898"/>
     <use style="fill:#008000;stroke:#008000;stroke-width:1.5;" x="276.849517" xlink:href="#m46fdb5cec5" y="295.233898"/>
     <use style="fill:#008000;stroke:#008000;stroke-width:1.5;" x="280.455974" xlink:href="#m46fdb5cec5" y="295.233898"/>
     <use style="fill:#008000;stroke:#008000;stroke-width:1.5;" x="282.526347" xlink:href="#m46fdb5cec5" y="295.233898"/>
     <use style="fill:#008000;stroke:#008000;stroke-width:1.5;" x="283.895465" xlink:href="#m46fdb5cec5" y="295.233898"/>
     <use style="fill:#008000;stroke:#008000;stroke-width:1.5;" x="287.401743" xlink:href="#m46fdb5cec5" y="295.233898"/>
     <use style="fill:#008000;stroke:#008000;stroke-width:1.5;" x="288.637288" xlink:href="#m46fdb5cec5" y="295.233898"/>
     <use style="fill:#008000;stroke:#008000;stroke-width:1.5;" x="289.872833" xlink:href="#m46fdb5cec5" y="295.233898"/>
     <use style="fill:#008000;stroke:#008000;stroke-width:1.5;" x="293.512684" xlink:href="#m46fdb5cec5" y="295.233898"/>
     <use style="fill:#008000;stroke:#008000;stroke-width:1.5;" x="296.217526" xlink:href="#m46fdb5cec5" y="295.233898"/>
     <use style="fill:#008000;stroke:#008000;stroke-width:1.5;" x="299.122728" xlink:href="#m46fdb5cec5" y="295.233898"/>
     <use style="fill:#008000;stroke:#008000;stroke-width:1.5;" x="300.191308" xlink:href="#m46fdb5cec5" y="295.233898"/>
     <use style="fill:#008000;stroke:#008000;stroke-width:1.5;" x="300.825777" xlink:href="#m46fdb5cec5" y="295.233898"/>
     <use style="fill:#008000;stroke:#008000;stroke-width:1.5;" x="303.296868" xlink:href="#m46fdb5cec5" y="295.233898"/>
     <use style="fill:#008000;stroke:#008000;stroke-width:1.5;" x="303.397047" xlink:href="#m46fdb5cec5" y="295.233898"/>
     <use style="fill:#008000;stroke:#008000;stroke-width:1.5;" x="308.13887" xlink:href="#m46fdb5cec5" y="295.233898"/>
     <use style="fill:#008000;stroke:#008000;stroke-width:1.5;" x="308.372622" xlink:href="#m46fdb5cec5" y="295.233898"/>
     <use style="fill:#008000;stroke:#008000;stroke-width:1.5;" x="308.572981" xlink:href="#m46fdb5cec5" y="295.233898"/>
     <use style="fill:#008000;stroke:#008000;stroke-width:1.5;" x="309.040484" xlink:href="#m46fdb5cec5" y="295.233898"/>
     <use style="fill:#008000;stroke:#008000;stroke-width:1.5;" x="312.246224" xlink:href="#m46fdb5cec5" y="295.233898"/>
     <use style="fill:#008000;stroke:#008000;stroke-width:1.5;" x="314.683922" xlink:href="#m46fdb5cec5" y="295.233898"/>
     <use style="fill:#008000;stroke:#008000;stroke-width:1.5;" x="315.351784" xlink:href="#m46fdb5cec5" y="295.233898"/>
     <use style="fill:#008000;stroke:#008000;stroke-width:1.5;" x="315.819288" xlink:href="#m46fdb5cec5" y="295.233898"/>
     <use style="fill:#008000;stroke:#008000;stroke-width:1.5;" x="316.687509" xlink:href="#m46fdb5cec5" y="295.233898"/>
     <use style="fill:#008000;stroke:#008000;stroke-width:1.5;" x="317.321978" xlink:href="#m46fdb5cec5" y="295.233898"/>
     <use style="fill:#008000;stroke:#008000;stroke-width:1.5;" x="322.063801" xlink:href="#m46fdb5cec5" y="295.233898"/>
     <use style="fill:#008000;stroke:#008000;stroke-width:1.5;" x="323.700064" xlink:href="#m46fdb5cec5" y="295.233898"/>
     <use style="fill:#008000;stroke:#008000;stroke-width:1.5;" x="326.839017" xlink:href="#m46fdb5cec5" y="295.233898"/>
     <use style="fill:#008000;stroke:#008000;stroke-width:1.5;" x="327.640452" xlink:href="#m46fdb5cec5" y="295.233898"/>
     <use style="fill:#008000;stroke:#008000;stroke-width:1.5;" x="331.981558" xlink:href="#m46fdb5cec5" y="295.233898"/>
     <use style="fill:#008000;stroke:#008000;stroke-width:1.5;" x="332.348882" xlink:href="#m46fdb5cec5" y="295.233898"/>
     <use style="fill:#008000;stroke:#008000;stroke-width:1.5;" x="333.18371" xlink:href="#m46fdb5cec5" y="295.233898"/>
     <use style="fill:#008000;stroke:#008000;stroke-width:1.5;" x="333.684607" xlink:href="#m46fdb5cec5" y="295.233898"/>
     <use style="fill:#008000;stroke:#008000;stroke-width:1.5;" x="335.053725" xlink:href="#m46fdb5cec5" y="295.233898"/>
     <use style="fill:#008000;stroke:#008000;stroke-width:1.5;" x="336.756774" xlink:href="#m46fdb5cec5" y="295.233898"/>
     <use style="fill:#008000;stroke:#008000;stroke-width:1.5;" x="338.393037" xlink:href="#m46fdb5cec5" y="295.233898"/>
     <use style="fill:#008000;stroke:#008000;stroke-width:1.5;" x="339.828941" xlink:href="#m46fdb5cec5" y="295.233898"/>
     <use style="fill:#008000;stroke:#008000;stroke-width:1.5;" x="344.537371" xlink:href="#m46fdb5cec5" y="295.233898"/>
     <use style="fill:#008000;stroke:#008000;stroke-width:1.5;" x="344.73773" xlink:href="#m46fdb5cec5" y="295.233898"/>
     <use style="fill:#008000;stroke:#008000;stroke-width:1.5;" x="345.472378" xlink:href="#m46fdb5cec5" y="295.233898"/>
     <use style="fill:#008000;stroke:#008000;stroke-width:1.5;" x="348.110435" xlink:href="#m46fdb5cec5" y="295.233898"/>
     <use style="fill:#008000;stroke:#008000;stroke-width:1.5;" x="351.616712" xlink:href="#m46fdb5cec5" y="295.233898"/>
     <use style="fill:#008000;stroke:#008000;stroke-width:1.5;" x="352.251182" xlink:href="#m46fdb5cec5" y="295.233898"/>
     <use style="fill:#008000;stroke:#008000;stroke-width:1.5;" x="352.384754" xlink:href="#m46fdb5cec5" y="295.233898"/>
     <use style="fill:#008000;stroke:#008000;stroke-width:1.5;" x="352.852258" xlink:href="#m46fdb5cec5" y="295.233898"/>
     <use style="fill:#008000;stroke:#008000;stroke-width:1.5;" x="352.98583" xlink:href="#m46fdb5cec5" y="295.233898"/>
     <use style="fill:#008000;stroke:#008000;stroke-width:1.5;" x="354.288162" xlink:href="#m46fdb5cec5" y="295.233898"/>
     <use style="fill:#008000;stroke:#008000;stroke-width:1.5;" x="355.590494" xlink:href="#m46fdb5cec5" y="295.233898"/>
     <use style="fill:#008000;stroke:#008000;stroke-width:1.5;" x="358.362123" xlink:href="#m46fdb5cec5" y="295.233898"/>
     <use style="fill:#008000;stroke:#008000;stroke-width:1.5;" x="360.866606" xlink:href="#m46fdb5cec5" y="295.233898"/>
     <use style="fill:#008000;stroke:#008000;stroke-width:1.5;" x="363.304304" xlink:href="#m46fdb5cec5" y="295.233898"/>
     <use style="fill:#008000;stroke:#008000;stroke-width:1.5;" x="366.176113" xlink:href="#m46fdb5cec5" y="295.233898"/>
     <use style="fill:#008000;stroke:#008000;stroke-width:1.5;" x="366.743796" xlink:href="#m46fdb5cec5" y="295.233898"/>
     <use style="fill:#008000;stroke:#008000;stroke-width:1.5;" x="373.889923" xlink:href="#m46fdb5cec5" y="295.233898"/>
     <use style="fill:#008000;stroke:#008000;stroke-width:1.5;" x="373.95671" xlink:href="#m46fdb5cec5" y="295.233898"/>
     <use style="fill:#008000;stroke:#008000;stroke-width:1.5;" x="374.490999" xlink:href="#m46fdb5cec5" y="295.233898"/>
     <use style="fill:#008000;stroke:#008000;stroke-width:1.5;" x="377.028877" xlink:href="#m46fdb5cec5" y="295.233898"/>
     <use style="fill:#008000;stroke:#008000;stroke-width:1.5;" x="377.329415" xlink:href="#m46fdb5cec5" y="295.233898"/>
     <use style="fill:#008000;stroke:#008000;stroke-width:1.5;" x="377.997277" xlink:href="#m46fdb5cec5" y="295.233898"/>
     <use style="fill:#008000;stroke:#008000;stroke-width:1.5;" x="378.297815" xlink:href="#m46fdb5cec5" y="295.233898"/>
     <use style="fill:#008000;stroke:#008000;stroke-width:1.5;" x="378.364601" xlink:href="#m46fdb5cec5" y="295.233898"/>
     <use style="fill:#008000;stroke:#008000;stroke-width:1.5;" x="379.433181" xlink:href="#m46fdb5cec5" y="295.233898"/>
     <use style="fill:#008000;stroke:#008000;stroke-width:1.5;" x="380.101044" xlink:href="#m46fdb5cec5" y="295.233898"/>
     <use style="fill:#008000;stroke:#008000;stroke-width:1.5;" x="380.635334" xlink:href="#m46fdb5cec5" y="295.233898"/>
     <use style="fill:#008000;stroke:#008000;stroke-width:1.5;" x="381.470162" xlink:href="#m46fdb5cec5" y="295.233898"/>
     <use style="fill:#008000;stroke:#008000;stroke-width:1.5;" x="381.536948" xlink:href="#m46fdb5cec5" y="295.233898"/>
     <use style="fill:#008000;stroke:#008000;stroke-width:1.5;" x="386.412343" xlink:href="#m46fdb5cec5" y="295.233898"/>
     <use style="fill:#008000;stroke:#008000;stroke-width:1.5;" x="386.980026" xlink:href="#m46fdb5cec5" y="295.233898"/>
     <use style="fill:#008000;stroke:#008000;stroke-width:1.5;" x="392.857215" xlink:href="#m46fdb5cec5" y="295.233898"/>
     <use style="fill:#008000;stroke:#008000;stroke-width:1.5;" x="393.959188" xlink:href="#m46fdb5cec5" y="295.233898"/>
     <use style="fill:#008000;stroke:#008000;stroke-width:1.5;" x="394.526871" xlink:href="#m46fdb5cec5" y="295.233898"/>
     <use style="fill:#008000;stroke:#008000;stroke-width:1.5;" x="394.760623" xlink:href="#m46fdb5cec5" y="295.233898"/>
     <use style="fill:#008000;stroke:#008000;stroke-width:1.5;" x="395.729024" xlink:href="#m46fdb5cec5" y="295.233898"/>
     <use style="fill:#008000;stroke:#008000;stroke-width:1.5;" x="397.966363" xlink:href="#m46fdb5cec5" y="295.233898"/>
    </g>
   </g>
   <g id="matplotlib.axis_1">
    <g id="xtick_1">
     <g id="line2d_1">
      <defs>
       <path d="M 0 0 
L 0 3.5 
" id="m75690ea79a" style="stroke:#000000;stroke-width:0.8;"/>
      </defs>
      <g>
       <use style="stroke:#000000;stroke-width:0.8;" x="69.077524" xlink:href="#m75690ea79a" y="307.584"/>
      </g>
     </g>
     <g id="text_1">
      <!-- 0 -->
      <defs>
       <path d="M 31.78125 66.40625 
Q 24.171875 66.40625 20.328125 58.90625 
Q 16.5 51.421875 16.5 36.375 
Q 16.5 21.390625 20.328125 13.890625 
Q 24.171875 6.390625 31.78125 6.390625 
Q 39.453125 6.390625 43.28125 13.890625 
Q 47.125 21.390625 47.125 36.375 
Q 47.125 51.421875 43.28125 58.90625 
Q 39.453125 66.40625 31.78125 66.40625 
z
M 31.78125 74.21875 
Q 44.046875 74.21875 50.515625 64.515625 
Q 56.984375 54.828125 56.984375 36.375 
Q 56.984375 17.96875 50.515625 8.265625 
Q 44.046875 -1.421875 31.78125 -1.421875 
Q 19.53125 -1.421875 13.0625 8.265625 
Q 6.59375 17.96875 6.59375 36.375 
Q 6.59375 54.828125 13.0625 64.515625 
Q 19.53125 74.21875 31.78125 74.21875 
z
" id="DejaVuSans-30"/>
      </defs>
      <g transform="translate(65.896274 322.182437)scale(0.1 -0.1)">
       <use xlink:href="#DejaVuSans-30"/>
      </g>
     </g>
    </g>
    <g id="xtick_2">
     <g id="line2d_2">
      <g>
       <use style="stroke:#000000;stroke-width:0.8;" x="135.863764" xlink:href="#m75690ea79a" y="307.584"/>
      </g>
     </g>
     <g id="text_2">
      <!-- 2000 -->
      <defs>
       <path d="M 19.1875 8.296875 
L 53.609375 8.296875 
L 53.609375 0 
L 7.328125 0 
L 7.328125 8.296875 
Q 12.9375 14.109375 22.625 23.890625 
Q 32.328125 33.6875 34.8125 36.53125 
Q 39.546875 41.84375 41.421875 45.53125 
Q 43.3125 49.21875 43.3125 52.78125 
Q 43.3125 58.59375 39.234375 62.25 
Q 35.15625 65.921875 28.609375 65.921875 
Q 23.96875 65.921875 18.8125 64.3125 
Q 13.671875 62.703125 7.8125 59.421875 
L 7.8125 69.390625 
Q 13.765625 71.78125 18.9375 73 
Q 24.125 74.21875 28.421875 74.21875 
Q 39.75 74.21875 46.484375 68.546875 
Q 53.21875 62.890625 53.21875 53.421875 
Q 53.21875 48.921875 51.53125 44.890625 
Q 49.859375 40.875 45.40625 35.40625 
Q 44.1875 33.984375 37.640625 27.21875 
Q 31.109375 20.453125 19.1875 8.296875 
z
" id="DejaVuSans-32"/>
      </defs>
      <g transform="translate(123.138764 322.182437)scale(0.1 -0.1)">
       <use xlink:href="#DejaVuSans-32"/>
       <use x="63.623047" xlink:href="#DejaVuSans-30"/>
       <use x="127.246094" xlink:href="#DejaVuSans-30"/>
       <use x="190.869141" xlink:href="#DejaVuSans-30"/>
      </g>
     </g>
    </g>
    <g id="xtick_3">
     <g id="line2d_3">
      <g>
       <use style="stroke:#000000;stroke-width:0.8;" x="202.650004" xlink:href="#m75690ea79a" y="307.584"/>
      </g>
     </g>
     <g id="text_3">
      <!-- 4000 -->
      <defs>
       <path d="M 37.796875 64.3125 
L 12.890625 25.390625 
L 37.796875 25.390625 
z
M 35.203125 72.90625 
L 47.609375 72.90625 
L 47.609375 25.390625 
L 58.015625 25.390625 
L 58.015625 17.1875 
L 47.609375 17.1875 
L 47.609375 0 
L 37.796875 0 
L 37.796875 17.1875 
L 4.890625 17.1875 
L 4.890625 26.703125 
z
" id="DejaVuSans-34"/>
      </defs>
      <g transform="translate(189.925004 322.182437)scale(0.1 -0.1)">
       <use xlink:href="#DejaVuSans-34"/>
       <use x="63.623047" xlink:href="#DejaVuSans-30"/>
       <use x="127.246094" xlink:href="#DejaVuSans-30"/>
       <use x="190.869141" xlink:href="#DejaVuSans-30"/>
      </g>
     </g>
    </g>
    <g id="xtick_4">
     <g id="line2d_4">
      <g>
       <use style="stroke:#000000;stroke-width:0.8;" x="269.436244" xlink:href="#m75690ea79a" y="307.584"/>
      </g>
     </g>
     <g id="text_4">
      <!-- 6000 -->
      <defs>
       <path d="M 33.015625 40.375 
Q 26.375 40.375 22.484375 35.828125 
Q 18.609375 31.296875 18.609375 23.390625 
Q 18.609375 15.53125 22.484375 10.953125 
Q 26.375 6.390625 33.015625 6.390625 
Q 39.65625 6.390625 43.53125 10.953125 
Q 47.40625 15.53125 47.40625 23.390625 
Q 47.40625 31.296875 43.53125 35.828125 
Q 39.65625 40.375 33.015625 40.375 
z
M 52.59375 71.296875 
L 52.59375 62.3125 
Q 48.875 64.0625 45.09375 64.984375 
Q 41.3125 65.921875 37.59375 65.921875 
Q 27.828125 65.921875 22.671875 59.328125 
Q 17.53125 52.734375 16.796875 39.40625 
Q 19.671875 43.65625 24.015625 45.921875 
Q 28.375 48.1875 33.59375 48.1875 
Q 44.578125 48.1875 50.953125 41.515625 
Q 57.328125 34.859375 57.328125 23.390625 
Q 57.328125 12.15625 50.6875 5.359375 
Q 44.046875 -1.421875 33.015625 -1.421875 
Q 20.359375 -1.421875 13.671875 8.265625 
Q 6.984375 17.96875 6.984375 36.375 
Q 6.984375 53.65625 15.1875 63.9375 
Q 23.390625 74.21875 37.203125 74.21875 
Q 40.921875 74.21875 44.703125 73.484375 
Q 48.484375 72.75 52.59375 71.296875 
z
" id="DejaVuSans-36"/>
      </defs>
      <g transform="translate(256.711244 322.182437)scale(0.1 -0.1)">
       <use xlink:href="#DejaVuSans-36"/>
       <use x="63.623047" xlink:href="#DejaVuSans-30"/>
       <use x="127.246094" xlink:href="#DejaVuSans-30"/>
       <use x="190.869141" xlink:href="#DejaVuSans-30"/>
      </g>
     </g>
    </g>
    <g id="xtick_5">
     <g id="line2d_5">
      <g>
       <use style="stroke:#000000;stroke-width:0.8;" x="336.222484" xlink:href="#m75690ea79a" y="307.584"/>
      </g>
     </g>
     <g id="text_5">
      <!-- 8000 -->
      <defs>
       <path d="M 31.78125 34.625 
Q 24.75 34.625 20.71875 30.859375 
Q 16.703125 27.09375 16.703125 20.515625 
Q 16.703125 13.921875 20.71875 10.15625 
Q 24.75 6.390625 31.78125 6.390625 
Q 38.8125 6.390625 42.859375 10.171875 
Q 46.921875 13.96875 46.921875 20.515625 
Q 46.921875 27.09375 42.890625 30.859375 
Q 38.875 34.625 31.78125 34.625 
z
M 21.921875 38.8125 
Q 15.578125 40.375 12.03125 44.71875 
Q 8.5 49.078125 8.5 55.328125 
Q 8.5 64.0625 14.71875 69.140625 
Q 20.953125 74.21875 31.78125 74.21875 
Q 42.671875 74.21875 48.875 69.140625 
Q 55.078125 64.0625 55.078125 55.328125 
Q 55.078125 49.078125 51.53125 44.71875 
Q 48 40.375 41.703125 38.8125 
Q 48.828125 37.15625 52.796875 32.3125 
Q 56.78125 27.484375 56.78125 20.515625 
Q 56.78125 9.90625 50.3125 4.234375 
Q 43.84375 -1.421875 31.78125 -1.421875 
Q 19.734375 -1.421875 13.25 4.234375 
Q 6.78125 9.90625 6.78125 20.515625 
Q 6.78125 27.484375 10.78125 32.3125 
Q 14.796875 37.15625 21.921875 38.8125 
z
M 18.3125 54.390625 
Q 18.3125 48.734375 21.84375 45.5625 
Q 25.390625 42.390625 31.78125 42.390625 
Q 38.140625 42.390625 41.71875 45.5625 
Q 45.3125 48.734375 45.3125 54.390625 
Q 45.3125 60.0625 41.71875 63.234375 
Q 38.140625 66.40625 31.78125 66.40625 
Q 25.390625 66.40625 21.84375 63.234375 
Q 18.3125 60.0625 18.3125 54.390625 
z
" id="DejaVuSans-38"/>
      </defs>
      <g transform="translate(323.497484 322.182437)scale(0.1 -0.1)">
       <use xlink:href="#DejaVuSans-38"/>
       <use x="63.623047" xlink:href="#DejaVuSans-30"/>
       <use x="127.246094" xlink:href="#DejaVuSans-30"/>
       <use x="190.869141" xlink:href="#DejaVuSans-30"/>
      </g>
     </g>
    </g>
    <g id="xtick_6">
     <g id="line2d_6">
      <g>
       <use style="stroke:#000000;stroke-width:0.8;" x="403.008724" xlink:href="#m75690ea79a" y="307.584"/>
      </g>
     </g>
     <g id="text_6">
      <!-- 10000 -->
      <defs>
       <path d="M 12.40625 8.296875 
L 28.515625 8.296875 
L 28.515625 63.921875 
L 10.984375 60.40625 
L 10.984375 69.390625 
L 28.421875 72.90625 
L 38.28125 72.90625 
L 38.28125 8.296875 
L 54.390625 8.296875 
L 54.390625 0 
L 12.40625 0 
z
" id="DejaVuSans-31"/>
      </defs>
      <g transform="translate(387.102474 322.182437)scale(0.1 -0.1)">
       <use xlink:href="#DejaVuSans-31"/>
       <use x="63.623047" xlink:href="#DejaVuSans-30"/>
       <use x="127.246094" xlink:href="#DejaVuSans-30"/>
       <use x="190.869141" xlink:href="#DejaVuSans-30"/>
       <use x="254.492188" xlink:href="#DejaVuSans-30"/>
      </g>
     </g>
    </g>
   </g>
   <g id="matplotlib.axis_2">
    <g id="ytick_1">
     <g id="line2d_7">
      <defs>
       <path d="M 0 0 
L -3.5 0 
" id="ma7c0d48b73" style="stroke:#000000;stroke-width:0.8;"/>
      </defs>
      <g>
       <use style="stroke:#000000;stroke-width:0.8;" x="57.6" xlink:href="#ma7c0d48b73" y="295.233898"/>
      </g>
     </g>
     <g id="text_7">
      <!-- 1.00 -->
      <defs>
       <path d="M 10.6875 12.40625 
L 21 12.40625 
L 21 0 
L 10.6875 0 
z
" id="DejaVuSans-2e"/>
      </defs>
      <g transform="translate(28.334375 299.033116)scale(0.1 -0.1)">
       <use xlink:href="#DejaVuSans-31"/>
       <use x="63.623047" xlink:href="#DejaVuSans-2e"/>
       <use x="95.410156" xlink:href="#DejaVuSans-30"/>
       <use x="159.033203" xlink:href="#DejaVuSans-30"/>
      </g>
     </g>
    </g>
    <g id="ytick_2">
     <g id="line2d_8">
      <g>
       <use style="stroke:#000000;stroke-width:0.8;" x="57.6" xlink:href="#ma7c0d48b73" y="265.057423"/>
      </g>
     </g>
     <g id="text_8">
      <!-- 1.25 -->
      <defs>
       <path d="M 10.796875 72.90625 
L 49.515625 72.90625 
L 49.515625 64.59375 
L 19.828125 64.59375 
L 19.828125 46.734375 
Q 21.96875 47.46875 24.109375 47.828125 
Q 26.265625 48.1875 28.421875 48.1875 
Q 40.625 48.1875 47.75 41.5 
Q 54.890625 34.8125 54.890625 23.390625 
Q 54.890625 11.625 47.5625 5.09375 
Q 40.234375 -1.421875 26.90625 -1.421875 
Q 22.3125 -1.421875 17.546875 -0.640625 
Q 12.796875 0.140625 7.71875 1.703125 
L 7.71875 11.625 
Q 12.109375 9.234375 16.796875 8.0625 
Q 21.484375 6.890625 26.703125 6.890625 
Q 35.15625 6.890625 40.078125 11.328125 
Q 45.015625 15.765625 45.015625 23.390625 
Q 45.015625 31 40.078125 35.4375 
Q 35.15625 39.890625 26.703125 39.890625 
Q 22.75 39.890625 18.8125 39.015625 
Q 14.890625 38.140625 10.796875 36.28125 
z
" id="DejaVuSans-35"/>
      </defs>
      <g transform="translate(28.334375 268.856642)scale(0.1 -0.1)">
       <use xlink:href="#DejaVuSans-31"/>
       <use x="63.623047" xlink:href="#DejaVuSans-2e"/>
       <use x="95.410156" xlink:href="#DejaVuSans-32"/>
       <use x="159.033203" xlink:href="#DejaVuSans-35"/>
      </g>
     </g>
    </g>
    <g id="ytick_3">
     <g id="line2d_9">
      <g>
       <use style="stroke:#000000;stroke-width:0.8;" x="57.6" xlink:href="#ma7c0d48b73" y="234.880949"/>
      </g>
     </g>
     <g id="text_9">
      <!-- 1.50 -->
      <g transform="translate(28.334375 238.680168)scale(0.1 -0.1)">
       <use xlink:href="#DejaVuSans-31"/>
       <use x="63.623047" xlink:href="#DejaVuSans-2e"/>
       <use x="95.410156" xlink:href="#DejaVuSans-35"/>
       <use x="159.033203" xlink:href="#DejaVuSans-30"/>
      </g>
     </g>
    </g>
    <g id="ytick_4">
     <g id="line2d_10">
      <g>
       <use style="stroke:#000000;stroke-width:0.8;" x="57.6" xlink:href="#ma7c0d48b73" y="204.704474"/>
      </g>
     </g>
     <g id="text_10">
      <!-- 1.75 -->
      <defs>
       <path d="M 8.203125 72.90625 
L 55.078125 72.90625 
L 55.078125 68.703125 
L 28.609375 0 
L 18.3125 0 
L 43.21875 64.59375 
L 8.203125 64.59375 
z
" id="DejaVuSans-37"/>
      </defs>
      <g transform="translate(28.334375 208.503693)scale(0.1 -0.1)">
       <use xlink:href="#DejaVuSans-31"/>
       <use x="63.623047" xlink:href="#DejaVuSans-2e"/>
       <use x="95.410156" xlink:href="#DejaVuSans-37"/>
       <use x="159.033203" xlink:href="#DejaVuSans-35"/>
      </g>
     </g>
    </g>
    <g id="ytick_5">
     <g id="line2d_11">
      <g>
       <use style="stroke:#000000;stroke-width:0.8;" x="57.6" xlink:href="#ma7c0d48b73" y="174.528"/>
      </g>
     </g>
     <g id="text_11">
      <!-- 2.00 -->
      <g transform="translate(28.334375 178.327219)scale(0.1 -0.1)">
       <use xlink:href="#DejaVuSans-32"/>
       <use x="63.623047" xlink:href="#DejaVuSans-2e"/>
       <use x="95.410156" xlink:href="#DejaVuSans-30"/>
       <use x="159.033203" xlink:href="#DejaVuSans-30"/>
      </g>
     </g>
    </g>
    <g id="ytick_6">
     <g id="line2d_12">
      <g>
       <use style="stroke:#000000;stroke-width:0.8;" x="57.6" xlink:href="#ma7c0d48b73" y="144.351526"/>
      </g>
     </g>
     <g id="text_12">
      <!-- 2.25 -->
      <g transform="translate(28.334375 148.150744)scale(0.1 -0.1)">
       <use xlink:href="#DejaVuSans-32"/>
       <use x="63.623047" xlink:href="#DejaVuSans-2e"/>
       <use x="95.410156" xlink:href="#DejaVuSans-32"/>
       <use x="159.033203" xlink:href="#DejaVuSans-35"/>
      </g>
     </g>
    </g>
    <g id="ytick_7">
     <g id="line2d_13">
      <g>
       <use style="stroke:#000000;stroke-width:0.8;" x="57.6" xlink:href="#ma7c0d48b73" y="114.175051"/>
      </g>
     </g>
     <g id="text_13">
      <!-- 2.50 -->
      <g transform="translate(28.334375 117.97427)scale(0.1 -0.1)">
       <use xlink:href="#DejaVuSans-32"/>
       <use x="63.623047" xlink:href="#DejaVuSans-2e"/>
       <use x="95.410156" xlink:href="#DejaVuSans-35"/>
       <use x="159.033203" xlink:href="#DejaVuSans-30"/>
      </g>
     </g>
    </g>
    <g id="ytick_8">
     <g id="line2d_14">
      <g>
       <use style="stroke:#000000;stroke-width:0.8;" x="57.6" xlink:href="#ma7c0d48b73" y="83.998577"/>
      </g>
     </g>
     <g id="text_14">
      <!-- 2.75 -->
      <g transform="translate(28.334375 87.797795)scale(0.1 -0.1)">
       <use xlink:href="#DejaVuSans-32"/>
       <use x="63.623047" xlink:href="#DejaVuSans-2e"/>
       <use x="95.410156" xlink:href="#DejaVuSans-37"/>
       <use x="159.033203" xlink:href="#DejaVuSans-35"/>
      </g>
     </g>
    </g>
    <g id="ytick_9">
     <g id="line2d_15">
      <g>
       <use style="stroke:#000000;stroke-width:0.8;" x="57.6" xlink:href="#ma7c0d48b73" y="53.822102"/>
      </g>
     </g>
     <g id="text_15">
      <!-- 3.00 -->
      <defs>
       <path d="M 40.578125 39.3125 
Q 47.65625 37.796875 51.625 33 
Q 55.609375 28.21875 55.609375 21.1875 
Q 55.609375 10.40625 48.1875 4.484375 
Q 40.765625 -1.421875 27.09375 -1.421875 
Q 22.515625 -1.421875 17.65625 -0.515625 
Q 12.796875 0.390625 7.625 2.203125 
L 7.625 11.71875 
Q 11.71875 9.328125 16.59375 8.109375 
Q 21.484375 6.890625 26.8125 6.890625 
Q 36.078125 6.890625 40.9375 10.546875 
Q 45.796875 14.203125 45.796875 21.1875 
Q 45.796875 27.640625 41.28125 31.265625 
Q 36.765625 34.90625 28.71875 34.90625 
L 20.21875 34.90625 
L 20.21875 43.015625 
L 29.109375 43.015625 
Q 36.375 43.015625 40.234375 45.921875 
Q 44.09375 48.828125 44.09375 54.296875 
Q 44.09375 59.90625 40.109375 62.90625 
Q 36.140625 65.921875 28.71875 65.921875 
Q 24.65625 65.921875 20.015625 65.03125 
Q 15.375 64.15625 9.8125 62.3125 
L 9.8125 71.09375 
Q 15.4375 72.65625 20.34375 73.4375 
Q 25.25 74.21875 29.59375 74.21875 
Q 40.828125 74.21875 47.359375 69.109375 
Q 53.90625 64.015625 53.90625 55.328125 
Q 53.90625 49.265625 50.4375 45.09375 
Q 46.96875 40.921875 40.578125 39.3125 
z
" id="DejaVuSans-33"/>
      </defs>
      <g transform="translate(28.334375 57.621321)scale(0.1 -0.1)">
       <use xlink:href="#DejaVuSans-33"/>
       <use x="63.623047" xlink:href="#DejaVuSans-2e"/>
       <use x="95.410156" xlink:href="#DejaVuSans-30"/>
       <use x="159.033203" xlink:href="#DejaVuSans-30"/>
      </g>
     </g>
    </g>
   </g>
   <g id="patch_3">
    <path d="M 57.6 307.584 
L 57.6 41.472 
" style="fill:none;stroke:#000000;stroke-linecap:square;stroke-linejoin:miter;stroke-width:0.8;"/>
   </g>
   <g id="patch_4">
    <path d="M 414.72 307.584 
L 414.72 41.472 
" style="fill:none;stroke:#000000;stroke-linecap:square;stroke-linejoin:miter;stroke-width:0.8;"/>
   </g>
   <g id="patch_5">
    <path d="M 57.6 307.584 
L 414.72 307.584 
" style="fill:none;stroke:#000000;stroke-linecap:square;stroke-linejoin:miter;stroke-width:0.8;"/>
   </g>
   <g id="patch_6">
    <path d="M 57.6 41.472 
L 414.72 41.472 
" style="fill:none;stroke:#000000;stroke-linecap:square;stroke-linejoin:miter;stroke-width:0.8;"/>
   </g>
  </g>
 </g>
 <defs>
  <clipPath id="p8e3cbdf75f">
   <rect height="266.112" width="357.12" x="57.6" y="41.472"/>
  </clipPath>
 </defs>
</svg>
