<?xml version="1.0" encoding="utf-8" standalone="no"?>
<!DOCTYPE svg PUBLIC "-//W3C//DTD SVG 1.1//EN"
  "http://www.w3.org/Graphics/SVG/1.1/DTD/svg11.dtd">
<!-- Created with matplotlib (http://matplotlib.org/) -->
<svg height="345pt" version="1.1" viewBox="0 0 460 345" width="460pt" xmlns="http://www.w3.org/2000/svg" xmlns:xlink="http://www.w3.org/1999/xlink">
 <defs>
  <style type="text/css">
*{stroke-linecap:butt;stroke-linejoin:round;}
  </style>
 </defs>
 <g id="figure_1">
  <g id="patch_1">
   <path d="M 0 345.6 
L 460.8 345.6 
L 460.8 0 
L 0 0 
z
" style="fill:#ffffff;"/>
  </g>
  <g id="axes_1">
   <g id="patch_2">
    <path d="M 57.6 307.584 
L 414.72 307.584 
L 414.72 41.472 
L 57.6 41.472 
z
" style="fill:#ffffff;"/>
   </g>
   <g id="matplotlib.axis_1">
    <g id="xtick_1">
     <g id="line2d_1">
      <defs>
       <path d="M 0 0 
L 0 3.5 
" id="m217339a7a0" style="stroke:#000000;stroke-width:0.8;"/>
      </defs>
      <g>
       <use style="stroke:#000000;stroke-width:0.8;" x="73.832727" xlink:href="#m217339a7a0" y="307.584"/>
      </g>
     </g>
     <g id="text_1">
      <!-- 0 -->
      <defs>
       <path d="M 31.78125 66.40625 
Q 24.171875 66.40625 20.328125 58.90625 
Q 16.5 51.421875 16.5 36.375 
Q 16.5 21.390625 20.328125 13.890625 
Q 24.171875 6.390625 31.78125 6.390625 
Q 39.453125 6.390625 43.28125 13.890625 
Q 47.125 21.390625 47.125 36.375 
Q 47.125 51.421875 43.28125 58.90625 
Q 39.453125 66.40625 31.78125 66.40625 
z
M 31.78125 74.21875 
Q 44.046875 74.21875 50.515625 64.515625 
Q 56.984375 54.828125 56.984375 36.375 
Q 56.984375 17.96875 50.515625 8.265625 
Q 44.046875 -1.421875 31.78125 -1.421875 
Q 19.53125 -1.421875 13.0625 8.265625 
Q 6.59375 17.96875 6.59375 36.375 
Q 6.59375 54.828125 13.0625 64.515625 
Q 19.53125 74.21875 31.78125 74.21875 
z
" id="DejaVuSans-30"/>
      </defs>
      <g transform="translate(70.651477 322.182437)scale(0.1 -0.1)">
       <use xlink:href="#DejaVuSans-30"/>
      </g>
     </g>
    </g>
    <g id="xtick_2">
     <g id="line2d_2">
      <g>
       <use style="stroke:#000000;stroke-width:0.8;" x="139.419504" xlink:href="#m217339a7a0" y="307.584"/>
      </g>
     </g>
     <g id="text_2">
      <!-- 20 -->
      <defs>
       <path d="M 19.1875 8.296875 
L 53.609375 8.296875 
L 53.609375 0 
L 7.328125 0 
L 7.328125 8.296875 
Q 12.9375 14.109375 22.625 23.890625 
Q 32.328125 33.6875 34.8125 36.53125 
Q 39.546875 41.84375 41.421875 45.53125 
Q 43.3125 49.21875 43.3125 52.78125 
Q 43.3125 58.59375 39.234375 62.25 
Q 35.15625 65.921875 28.609375 65.921875 
Q 23.96875 65.921875 18.8125 64.3125 
Q 13.671875 62.703125 7.8125 59.421875 
L 7.8125 69.390625 
Q 13.765625 71.78125 18.9375 73 
Q 24.125 74.21875 28.421875 74.21875 
Q 39.75 74.21875 46.484375 68.546875 
Q 53.21875 62.890625 53.21875 53.421875 
Q 53.21875 48.921875 51.53125 44.890625 
Q 49.859375 40.875 45.40625 35.40625 
Q 44.1875 33.984375 37.640625 27.21875 
Q 31.109375 20.453125 19.1875 8.296875 
z
" id="DejaVuSans-32"/>
      </defs>
      <g transform="translate(133.057004 322.182437)scale(0.1 -0.1)">
       <use xlink:href="#DejaVuSans-32"/>
       <use x="63.623047" xlink:href="#DejaVuSans-30"/>
      </g>
     </g>
    </g>
    <g id="xtick_3">
     <g id="line2d_3">
      <g>
       <use style="stroke:#000000;stroke-width:0.8;" x="205.006281" xlink:href="#m217339a7a0" y="307.584"/>
      </g>
     </g>
     <g id="text_3">
      <!-- 40 -->
      <defs>
       <path d="M 37.796875 64.3125 
L 12.890625 25.390625 
L 37.796875 25.390625 
z
M 35.203125 72.90625 
L 47.609375 72.90625 
L 47.609375 25.390625 
L 58.015625 25.390625 
L 58.015625 17.1875 
L 47.609375 17.1875 
L 47.609375 0 
L 37.796875 0 
L 37.796875 17.1875 
L 4.890625 17.1875 
L 4.890625 26.703125 
z
" id="DejaVuSans-34"/>
      </defs>
      <g transform="translate(198.643781 322.182437)scale(0.1 -0.1)">
       <use xlink:href="#DejaVuSans-34"/>
       <use x="63.623047" xlink:href="#DejaVuSans-30"/>
      </g>
     </g>
    </g>
    <g id="xtick_4">
     <g id="line2d_4">
      <g>
       <use style="stroke:#000000;stroke-width:0.8;" x="270.593058" xlink:href="#m217339a7a0" y="307.584"/>
      </g>
     </g>
     <g id="text_4">
      <!-- 60 -->
      <defs>
       <path d="M 33.015625 40.375 
Q 26.375 40.375 22.484375 35.828125 
Q 18.609375 31.296875 18.609375 23.390625 
Q 18.609375 15.53125 22.484375 10.953125 
Q 26.375 6.390625 33.015625 6.390625 
Q 39.65625 6.390625 43.53125 10.953125 
Q 47.40625 15.53125 47.40625 23.390625 
Q 47.40625 31.296875 43.53125 35.828125 
Q 39.65625 40.375 33.015625 40.375 
z
M 52.59375 71.296875 
L 52.59375 62.3125 
Q 48.875 64.0625 45.09375 64.984375 
Q 41.3125 65.921875 37.59375 65.921875 
Q 27.828125 65.921875 22.671875 59.328125 
Q 17.53125 52.734375 16.796875 39.40625 
Q 19.671875 43.65625 24.015625 45.921875 
Q 28.375 48.1875 33.59375 48.1875 
Q 44.578125 48.1875 50.953125 41.515625 
Q 57.328125 34.859375 57.328125 23.390625 
Q 57.328125 12.15625 50.6875 5.359375 
Q 44.046875 -1.421875 33.015625 -1.421875 
Q 20.359375 -1.421875 13.671875 8.265625 
Q 6.984375 17.96875 6.984375 36.375 
Q 6.984375 53.65625 15.1875 63.9375 
Q 23.390625 74.21875 37.203125 74.21875 
Q 40.921875 74.21875 44.703125 73.484375 
Q 48.484375 72.75 52.59375 71.296875 
z
" id="DejaVuSans-36"/>
      </defs>
      <g transform="translate(264.230558 322.182437)scale(0.1 -0.1)">
       <use xlink:href="#DejaVuSans-36"/>
       <use x="63.623047" xlink:href="#DejaVuSans-30"/>
      </g>
     </g>
    </g>
    <g id="xtick_5">
     <g id="line2d_5">
      <g>
       <use style="stroke:#000000;stroke-width:0.8;" x="336.179835" xlink:href="#m217339a7a0" y="307.584"/>
      </g>
     </g>
     <g id="text_5">
      <!-- 80 -->
      <defs>
       <path d="M 31.78125 34.625 
Q 24.75 34.625 20.71875 30.859375 
Q 16.703125 27.09375 16.703125 20.515625 
Q 16.703125 13.921875 20.71875 10.15625 
Q 24.75 6.390625 31.78125 6.390625 
Q 38.8125 6.390625 42.859375 10.171875 
Q 46.921875 13.96875 46.921875 20.515625 
Q 46.921875 27.09375 42.890625 30.859375 
Q 38.875 34.625 31.78125 34.625 
z
M 21.921875 38.8125 
Q 15.578125 40.375 12.03125 44.71875 
Q 8.5 49.078125 8.5 55.328125 
Q 8.5 64.0625 14.71875 69.140625 
Q 20.953125 74.21875 31.78125 74.21875 
Q 42.671875 74.21875 48.875 69.140625 
Q 55.078125 64.0625 55.078125 55.328125 
Q 55.078125 49.078125 51.53125 44.71875 
Q 48 40.375 41.703125 38.8125 
Q 48.828125 37.15625 52.796875 32.3125 
Q 56.78125 27.484375 56.78125 20.515625 
Q 56.78125 9.90625 50.3125 4.234375 
Q 43.84375 -1.421875 31.78125 -1.421875 
Q 19.734375 -1.421875 13.25 4.234375 
Q 6.78125 9.90625 6.78125 20.515625 
Q 6.78125 27.484375 10.78125 32.3125 
Q 14.796875 37.15625 21.921875 38.8125 
z
M 18.3125 54.390625 
Q 18.3125 48.734375 21.84375 45.5625 
Q 25.390625 42.390625 31.78125 42.390625 
Q 38.140625 42.390625 41.71875 45.5625 
Q 45.3125 48.734375 45.3125 54.390625 
Q 45.3125 60.0625 41.71875 63.234375 
Q 38.140625 66.40625 31.78125 66.40625 
Q 25.390625 66.40625 21.84375 63.234375 
Q 18.3125 60.0625 18.3125 54.390625 
z
" id="DejaVuSans-38"/>
      </defs>
      <g transform="translate(329.817335 322.182437)scale(0.1 -0.1)">
       <use xlink:href="#DejaVuSans-38"/>
       <use x="63.623047" xlink:href="#DejaVuSans-30"/>
      </g>
     </g>
    </g>
    <g id="xtick_6">
     <g id="line2d_6">
      <g>
       <use style="stroke:#000000;stroke-width:0.8;" x="401.766612" xlink:href="#m217339a7a0" y="307.584"/>
      </g>
     </g>
     <g id="text_6">
      <!-- 100 -->
      <defs>
       <path d="M 12.40625 8.296875 
L 28.515625 8.296875 
L 28.515625 63.921875 
L 10.984375 60.40625 
L 10.984375 69.390625 
L 28.421875 72.90625 
L 38.28125 72.90625 
L 38.28125 8.296875 
L 54.390625 8.296875 
L 54.390625 0 
L 12.40625 0 
z
" id="DejaVuSans-31"/>
      </defs>
      <g transform="translate(392.222862 322.182437)scale(0.1 -0.1)">
       <use xlink:href="#DejaVuSans-31"/>
       <use x="63.623047" xlink:href="#DejaVuSans-30"/>
       <use x="127.246094" xlink:href="#DejaVuSans-30"/>
      </g>
     </g>
    </g>
   </g>
   <g id="matplotlib.axis_2">
    <g id="ytick_1">
     <g id="line2d_7">
      <defs>
       <path d="M 0 0 
L -3.5 0 
" id="ma55a65d4a9" style="stroke:#000000;stroke-width:0.8;"/>
      </defs>
      <g>
       <use style="stroke:#000000;stroke-width:0.8;" x="57.6" xlink:href="#ma55a65d4a9" y="283.687024"/>
      </g>
     </g>
     <g id="text_7">
      <!-- 0.5 -->
      <defs>
       <path d="M 10.6875 12.40625 
L 21 12.40625 
L 21 0 
L 10.6875 0 
z
" id="DejaVuSans-2e"/>
       <path d="M 10.796875 72.90625 
L 49.515625 72.90625 
L 49.515625 64.59375 
L 19.828125 64.59375 
L 19.828125 46.734375 
Q 21.96875 47.46875 24.109375 47.828125 
Q 26.265625 48.1875 28.421875 48.1875 
Q 40.625 48.1875 47.75 41.5 
Q 54.890625 34.8125 54.890625 23.390625 
Q 54.890625 11.625 47.5625 5.09375 
Q 40.234375 -1.421875 26.90625 -1.421875 
Q 22.3125 -1.421875 17.546875 -0.640625 
Q 12.796875 0.140625 7.71875 1.703125 
L 7.71875 11.625 
Q 12.109375 9.234375 16.796875 8.0625 
Q 21.484375 6.890625 26.703125 6.890625 
Q 35.15625 6.890625 40.078125 11.328125 
Q 45.015625 15.765625 45.015625 23.390625 
Q 45.015625 31 40.078125 35.4375 
Q 35.15625 39.890625 26.703125 39.890625 
Q 22.75 39.890625 18.8125 39.015625 
Q 14.890625 38.140625 10.796875 36.28125 
z
" id="DejaVuSans-35"/>
      </defs>
      <g transform="translate(34.696875 287.486243)scale(0.1 -0.1)">
       <use xlink:href="#DejaVuSans-30"/>
       <use x="63.623047" xlink:href="#DejaVuSans-2e"/>
       <use x="95.410156" xlink:href="#DejaVuSans-35"/>
      </g>
     </g>
    </g>
    <g id="ytick_2">
     <g id="line2d_8">
      <g>
       <use style="stroke:#000000;stroke-width:0.8;" x="57.6" xlink:href="#ma55a65d4a9" y="224.682146"/>
      </g>
     </g>
     <g id="text_8">
      <!-- 0.6 -->
      <g transform="translate(34.696875 228.481365)scale(0.1 -0.1)">
       <use xlink:href="#DejaVuSans-30"/>
       <use x="63.623047" xlink:href="#DejaVuSans-2e"/>
       <use x="95.410156" xlink:href="#DejaVuSans-36"/>
      </g>
     </g>
    </g>
    <g id="ytick_3">
     <g id="line2d_9">
      <g>
       <use style="stroke:#000000;stroke-width:0.8;" x="57.6" xlink:href="#ma55a65d4a9" y="165.677268"/>
      </g>
     </g>
     <g id="text_9">
      <!-- 0.7 -->
      <defs>
       <path d="M 8.203125 72.90625 
L 55.078125 72.90625 
L 55.078125 68.703125 
L 28.609375 0 
L 18.3125 0 
L 43.21875 64.59375 
L 8.203125 64.59375 
z
" id="DejaVuSans-37"/>
      </defs>
      <g transform="translate(34.696875 169.476487)scale(0.1 -0.1)">
       <use xlink:href="#DejaVuSans-30"/>
       <use x="63.623047" xlink:href="#DejaVuSans-2e"/>
       <use x="95.410156" xlink:href="#DejaVuSans-37"/>
      </g>
     </g>
    </g>
    <g id="ytick_4">
     <g id="line2d_10">
      <g>
       <use style="stroke:#000000;stroke-width:0.8;" x="57.6" xlink:href="#ma55a65d4a9" y="106.67239"/>
      </g>
     </g>
     <g id="text_10">
      <!-- 0.8 -->
      <g transform="translate(34.696875 110.471609)scale(0.1 -0.1)">
       <use xlink:href="#DejaVuSans-30"/>
       <use x="63.623047" xlink:href="#DejaVuSans-2e"/>
       <use x="95.410156" xlink:href="#DejaVuSans-38"/>
      </g>
     </g>
    </g>
    <g id="ytick_5">
     <g id="line2d_11">
      <g>
       <use style="stroke:#000000;stroke-width:0.8;" x="57.6" xlink:href="#ma55a65d4a9" y="47.667512"/>
      </g>
     </g>
     <g id="text_11">
      <!-- 0.9 -->
      <defs>
       <path d="M 10.984375 1.515625 
L 10.984375 10.5 
Q 14.703125 8.734375 18.5 7.8125 
Q 22.3125 6.890625 25.984375 6.890625 
Q 35.75 6.890625 40.890625 13.453125 
Q 46.046875 20.015625 46.78125 33.40625 
Q 43.953125 29.203125 39.59375 26.953125 
Q 35.25 24.703125 29.984375 24.703125 
Q 19.046875 24.703125 12.671875 31.3125 
Q 6.296875 37.9375 6.296875 49.421875 
Q 6.296875 60.640625 12.9375 67.421875 
Q 19.578125 74.21875 30.609375 74.21875 
Q 43.265625 74.21875 49.921875 64.515625 
Q 56.59375 54.828125 56.59375 36.375 
Q 56.59375 19.140625 48.40625 8.859375 
Q 40.234375 -1.421875 26.421875 -1.421875 
Q 22.703125 -1.421875 18.890625 -0.6875 
Q 15.09375 0.046875 10.984375 1.515625 
z
M 30.609375 32.421875 
Q 37.25 32.421875 41.125 36.953125 
Q 45.015625 41.5 45.015625 49.421875 
Q 45.015625 57.28125 41.125 61.84375 
Q 37.25 66.40625 30.609375 66.40625 
Q 23.96875 66.40625 20.09375 61.84375 
Q 16.21875 57.28125 16.21875 49.421875 
Q 16.21875 41.5 20.09375 36.953125 
Q 23.96875 32.421875 30.609375 32.421875 
z
" id="DejaVuSans-39"/>
      </defs>
      <g transform="translate(34.696875 51.466731)scale(0.1 -0.1)">
       <use xlink:href="#DejaVuSans-30"/>
       <use x="63.623047" xlink:href="#DejaVuSans-2e"/>
       <use x="95.410156" xlink:href="#DejaVuSans-39"/>
      </g>
     </g>
    </g>
   </g>
   <g id="line2d_12">
    <path clip-path="url(#pfe99b48971)" d="M 73.832727 171.577756 
L 77.112066 177.478244 
L 80.391405 260.085073 
L 83.670744 271.886049 
L 86.950083 206.980683 
L 90.229421 242.38361 
L 93.50876 195.179707 
L 96.788099 189.27922 
L 100.067438 242.38361 
L 103.346777 254.184585 
L 106.626116 206.980683 
L 109.905455 242.38361 
L 113.184793 147.975805 
L 116.464132 230.582634 
L 119.743471 206.980683 
L 123.02281 201.080195 
L 126.302149 218.781659 
L 129.581488 236.483122 
L 132.860826 224.682146 
L 136.140165 195.179707 
L 139.419504 195.179707 
L 142.698843 277.786537 
L 145.978182 236.483122 
L 149.257521 189.27922 
L 152.53686 230.582634 
L 155.816198 295.488 
L 159.095537 265.985561 
L 162.374876 201.080195 
L 165.654215 230.582634 
L 168.933554 224.682146 
L 172.212893 212.881171 
L 175.492231 242.38361 
L 178.77157 195.179707 
L 182.050909 206.980683 
L 185.330248 236.483122 
L 188.609587 201.080195 
L 191.888926 295.488 
L 195.168264 242.38361 
L 198.447603 248.284098 
L 201.726942 206.980683 
L 205.006281 177.478244 
L 208.28562 277.786537 
L 211.564959 218.781659 
L 214.844298 230.582634 
L 218.123636 165.677268 
L 221.402975 242.38361 
L 224.682314 230.582634 
L 227.961653 254.184585 
L 231.240992 230.582634 
L 234.520331 242.38361 
L 237.799669 236.483122 
L 241.079008 201.080195 
L 244.358347 201.080195 
L 247.637686 212.881171 
L 250.917025 254.184585 
L 254.196364 201.080195 
L 257.475702 277.786537 
L 260.755041 242.38361 
L 264.03438 195.179707 
L 267.313719 218.781659 
L 270.593058 224.682146 
L 273.872397 230.582634 
L 277.151736 236.483122 
L 280.431074 189.27922 
L 283.710413 212.881171 
L 286.989752 218.781659 
L 290.269091 189.27922 
L 293.54843 236.483122 
L 296.827769 218.781659 
L 300.107107 283.687024 
L 303.386446 242.38361 
L 306.665785 230.582634 
L 309.945124 212.881171 
L 313.224463 236.483122 
L 316.503802 201.080195 
L 319.78314 265.985561 
L 323.062479 201.080195 
L 326.341818 242.38361 
L 329.621157 236.483122 
L 332.900496 212.881171 
L 336.179835 248.284098 
L 339.459174 218.781659 
L 342.738512 248.284098 
L 346.017851 183.378732 
L 349.29719 230.582634 
L 352.576529 201.080195 
L 355.855868 242.38361 
L 359.135207 265.985561 
L 362.414545 171.577756 
L 365.693884 189.27922 
L 368.973223 212.881171 
L 372.252562 248.284098 
L 375.531901 224.682146 
L 378.81124 283.687024 
L 382.090579 248.284098 
L 385.369917 265.985561 
L 388.649256 206.980683 
L 391.928595 201.080195 
L 395.207934 236.483122 
L 398.487273 248.284098 
" style="fill:none;stroke:#1f77b4;stroke-linecap:square;stroke-width:1.5;"/>
   </g>
   <g id="line2d_13">
    <path clip-path="url(#pfe99b48971)" d="M 73.832727 165.677268 
L 77.112066 136.174829 
L 80.391405 130.274341 
L 83.670744 118.473366 
L 86.950083 171.577756 
L 90.229421 159.77678 
L 93.50876 147.975805 
L 96.788099 130.274341 
L 100.067438 147.975805 
L 103.346777 171.577756 
L 106.626116 189.27922 
L 109.905455 189.27922 
L 113.184793 201.080195 
L 116.464132 201.080195 
L 119.743471 130.274341 
L 123.02281 159.77678 
L 126.302149 189.27922 
L 129.581488 171.577756 
L 132.860826 201.080195 
L 136.140165 159.77678 
L 139.419504 142.075317 
L 142.698843 201.080195 
L 145.978182 147.975805 
L 149.257521 153.876293 
L 152.53686 189.27922 
L 155.816198 142.075317 
L 159.095537 218.781659 
L 162.374876 201.080195 
L 165.654215 153.876293 
L 168.933554 183.378732 
L 172.212893 165.677268 
L 175.492231 165.677268 
L 178.77157 142.075317 
L 182.050909 212.881171 
L 185.330248 195.179707 
L 188.609587 224.682146 
L 191.888926 153.876293 
L 195.168264 171.577756 
L 198.447603 124.373854 
L 201.726942 177.478244 
L 205.006281 171.577756 
L 208.28562 171.577756 
L 211.564959 118.473366 
L 214.844298 230.582634 
L 218.123636 230.582634 
L 221.402975 142.075317 
L 224.682314 218.781659 
L 227.961653 218.781659 
L 231.240992 195.179707 
L 234.520331 153.876293 
L 237.799669 153.876293 
L 241.079008 206.980683 
L 244.358347 171.577756 
L 247.637686 136.174829 
L 250.917025 165.677268 
L 254.196364 130.274341 
L 257.475702 201.080195 
L 260.755041 136.174829 
L 264.03438 189.27922 
L 267.313719 224.682146 
L 270.593058 165.677268 
L 273.872397 124.373854 
L 277.151736 153.876293 
L 280.431074 142.075317 
L 283.710413 171.577756 
L 286.989752 130.274341 
L 290.269091 165.677268 
L 293.54843 177.478244 
L 296.827769 177.478244 
L 300.107107 153.876293 
L 303.386446 177.478244 
L 306.665785 112.572878 
L 309.945124 183.378732 
L 313.224463 189.27922 
L 316.503802 147.975805 
L 319.78314 147.975805 
L 323.062479 130.274341 
L 326.341818 112.572878 
L 329.621157 153.876293 
L 332.900496 201.080195 
L 336.179835 189.27922 
L 339.459174 189.27922 
L 342.738512 159.77678 
L 346.017851 153.876293 
L 349.29719 147.975805 
L 352.576529 177.478244 
L 355.855868 165.677268 
L 359.135207 177.478244 
L 362.414545 177.478244 
L 365.693884 147.975805 
L 368.973223 206.980683 
L 372.252562 177.478244 
L 375.531901 189.27922 
L 378.81124 171.577756 
L 382.090579 147.975805 
L 385.369917 177.478244 
L 388.649256 189.27922 
L 391.928595 177.478244 
L 395.207934 206.980683 
L 398.487273 147.975805 
" style="fill:none;stroke:#ff7f0e;stroke-linecap:square;stroke-width:1.5;"/>
   </g>
   <g id="line2d_14">
    <path clip-path="url(#pfe99b48971)" d="M 73.832727 77.169951 
L 77.112066 124.373854 
L 80.391405 124.373854 
L 83.670744 94.871415 
L 86.950083 100.771902 
L 90.229421 112.572878 
L 93.50876 106.67239 
L 96.788099 153.876293 
L 100.067438 112.572878 
L 103.346777 88.970927 
L 106.626116 124.373854 
L 109.905455 124.373854 
L 113.184793 130.274341 
L 116.464132 159.77678 
L 119.743471 136.174829 
L 123.02281 106.67239 
L 126.302149 153.876293 
L 129.581488 112.572878 
L 132.860826 106.67239 
L 136.140165 118.473366 
L 139.419504 53.568 
L 142.698843 136.174829 
L 145.978182 130.274341 
L 149.257521 112.572878 
L 152.53686 94.871415 
L 155.816198 88.970927 
L 159.095537 118.473366 
L 162.374876 130.274341 
L 165.654215 118.473366 
L 168.933554 130.274341 
L 172.212893 124.373854 
L 175.492231 130.274341 
L 178.77157 136.174829 
L 182.050909 71.269463 
L 185.330248 77.169951 
L 188.609587 112.572878 
L 191.888926 112.572878 
L 195.168264 136.174829 
L 198.447603 94.871415 
L 201.726942 83.070439 
L 205.006281 118.473366 
L 208.28562 106.67239 
L 211.564959 106.67239 
L 214.844298 77.169951 
L 218.123636 118.473366 
L 221.402975 71.269463 
L 224.682314 112.572878 
L 227.961653 136.174829 
L 231.240992 106.67239 
L 234.520331 112.572878 
L 237.799669 94.871415 
L 241.079008 100.771902 
L 244.358347 112.572878 
L 247.637686 94.871415 
L 250.917025 77.169951 
L 254.196364 136.174829 
L 257.475702 94.871415 
L 260.755041 88.970927 
L 264.03438 106.67239 
L 267.313719 112.572878 
L 270.593058 142.075317 
L 273.872397 77.169951 
L 277.151736 77.169951 
L 280.431074 77.169951 
L 283.710413 130.274341 
L 286.989752 100.771902 
L 290.269091 112.572878 
L 293.54843 136.174829 
L 296.827769 118.473366 
L 300.107107 142.075317 
L 303.386446 106.67239 
L 306.665785 100.771902 
L 309.945124 136.174829 
L 313.224463 77.169951 
L 316.503802 112.572878 
L 319.78314 88.970927 
L 323.062479 136.174829 
L 326.341818 142.075317 
L 329.621157 83.070439 
L 332.900496 106.67239 
L 336.179835 130.274341 
L 339.459174 106.67239 
L 342.738512 136.174829 
L 346.017851 112.572878 
L 349.29719 94.871415 
L 352.576529 106.67239 
L 355.855868 118.473366 
L 359.135207 136.174829 
L 362.414545 147.975805 
L 365.693884 59.468488 
L 368.973223 124.373854 
L 372.252562 130.274341 
L 375.531901 94.871415 
L 378.81124 136.174829 
L 382.090579 118.473366 
L 385.369917 112.572878 
L 388.649256 118.473366 
L 391.928595 147.975805 
L 395.207934 53.568 
L 398.487273 112.572878 
" style="fill:none;stroke:#2ca02c;stroke-linecap:square;stroke-width:1.5;"/>
   </g>
   <g id="patch_3">
    <path d="M 57.6 307.584 
L 57.6 41.472 
" style="fill:none;stroke:#000000;stroke-linecap:square;stroke-linejoin:miter;stroke-width:0.8;"/>
   </g>
   <g id="patch_4">
    <path d="M 414.72 307.584 
L 414.72 41.472 
" style="fill:none;stroke:#000000;stroke-linecap:square;stroke-linejoin:miter;stroke-width:0.8;"/>
   </g>
   <g id="patch_5">
    <path d="M 57.6 307.584 
L 414.72 307.584 
" style="fill:none;stroke:#000000;stroke-linecap:square;stroke-linejoin:miter;stroke-width:0.8;"/>
   </g>
   <g id="patch_6">
    <path d="M 57.6 41.472 
L 414.72 41.472 
" style="fill:none;stroke:#000000;stroke-linecap:square;stroke-linejoin:miter;stroke-width:0.8;"/>
   </g>
  </g>
 </g>
 <defs>
  <clipPath id="pfe99b48971">
   <rect height="266.112" width="357.12" x="57.6" y="41.472"/>
  </clipPath>
 </defs>
</svg>
